<svg xmlns="http://www.w3.org/2000/svg" width="28" height="31" viewBox="0 0 28 31">
  <g id="check-list-and-pencil-svgrepo-com" transform="translate(-16.48)">
    <path id="Path_1059" data-name="Path 1059" d="M146.274,85.986l-3.35-3.35a.775.775,0,0,0-1.1,0l-2.979,2.979h0L131.2,93.26a.776.776,0,0,0-.217.423l-.657,4.007a.775.775,0,0,0,.765.9.766.766,0,0,0,.125-.01l4.007-.657a.776.776,0,0,0,.423-.217l10.624-10.624a.775.775,0,0,0,0-1.1ZM134.73,96.434l-2.7.442.442-2.7,6.919-6.919,2.254,2.254Zm8.016-8.016-2.254-2.254,1.884-1.884,2.254,2.254Z" transform="translate(-102.021 -74.091)" fill="#424244"/>
    <path id="Path_1060" data-name="Path 1060" d="M40.474,19.709a.772.772,0,0,0-.777.766v8.991H18.034V1.533H39.7v5a.777.777,0,0,0,1.554,0V.766A.772.772,0,0,0,40.474,0H17.257a.772.772,0,0,0-.777.766V30.234a.772.772,0,0,0,.777.766H40.474a.772.772,0,0,0,.777-.766V20.476A.772.772,0,0,0,40.474,19.709Z" fill="#424244"/>
    <path id="Path_1061" data-name="Path 1061" d="M57.892,40.138a.776.776,0,0,0-1.1,0L53.84,43.093l-1.169-1.169a.775.775,0,0,0-1.1,1.1l1.718,1.718a.776.776,0,0,0,1.1,0l3.5-3.5A.775.775,0,0,0,57.892,40.138Z" transform="translate(-31.263 -35.785)" fill="#424244"/>
    <path id="Path_1062" data-name="Path 1062" d="M57.892,128.487a.776.776,0,0,0-1.1,0l-2.955,2.955-1.169-1.169a.775.775,0,0,0-1.1,1.1l1.718,1.718a.776.776,0,0,0,1.1,0l3.5-3.5A.775.775,0,0,0,57.892,128.487Z" transform="translate(-31.263 -115.181)" fill="#424244"/>
    <path id="Path_1063" data-name="Path 1063" d="M56.8,216.836l-2.955,2.955-1.169-1.17a.775.775,0,1,0-1.1,1.1l1.718,1.718a.776.776,0,0,0,1.1,0l3.5-3.5a.775.775,0,1,0-1.1-1.1Z" transform="translate(-31.263 -194.574)" fill="#424244"/>
  </g>
</svg>
