<svg xmlns="http://www.w3.org/2000/svg" width="93.004" height="93.004" viewBox="0 0 93.004 93.004">
  <g id="wrench" transform="translate(-15.25 496.75)">
    <path id="Path_1037" data-name="Path 1037" d="M54.679-495.638c-.458.362-.458.419-.553,4.995l-.1,4.632-1.048.248a40.661,40.661,0,0,0-10.008,4.118l-1.144.705-3.184-3.184c-2.936-2.936-3.241-3.184-3.87-3.184-.648,0-.991.3-5.376,4.709-4.4,4.385-4.709,4.728-4.709,5.376,0,.629.248.934,3.184,3.87l3.184,3.184-.705,1.144a40.663,40.663,0,0,0-4.118,10.008l-.248,1.048-4.632.1c-4.575.1-4.632.1-4.995.553-.343.419-.362.839-.362,7.073s.019,6.653.362,7.072c.362.457.419.457,4.995.553l4.632.1.248,1.048a40.663,40.663,0,0,0,4.118,10.008l.705,1.144-3.184,3.184c-2.936,2.936-3.184,3.241-3.184,3.87s.305.991,4.48,5.166c2.44,2.459,4.709,4.613,4.995,4.766a1.487,1.487,0,0,0,.953.172,35.465,35.465,0,0,0,3.565-3.26l3.145-3.126,1.125.686a38.811,38.811,0,0,0,9.417,3.965l1.659.438.1,4.613c.1,4.575.1,4.632.553,4.995.419.343.839.362,7.072.362s6.653-.019,7.072-.362c.458-.362.458-.419.553-4.995l.1-4.613,1.659-.438a38.811,38.811,0,0,0,9.417-3.965l1.125-.686,6.672,6.653c7.206,7.187,7.511,7.416,9.894,7.854a7.593,7.593,0,0,0,8.712-8.712c-.438-2.383-.667-2.688-7.854-9.894l-6.653-6.672.686-1.125a38.809,38.809,0,0,0,3.965-9.417l.438-1.659,4.613-.1c4.575-.1,4.632-.1,4.995-.553.343-.419.362-.839.362-7.072s-.019-6.653-.362-7.073c-.362-.458-.419-.458-4.995-.553l-4.632-.1-.248-1.048a40.663,40.663,0,0,0-4.118-10.008l-.705-1.144,3.184-3.184c2.936-2.936,3.184-3.241,3.184-3.87,0-.648-.305-.991-4.709-5.376-4.385-4.4-4.728-4.709-5.376-4.709-.629,0-.934.248-3.87,3.184l-3.184,3.164-.763-.477a38.527,38.527,0,0,0-9.532-4.08l-1.906-.515-.1-4.613c-.1-4.575-.1-4.632-.553-4.995-.419-.343-.839-.362-7.072-.362S55.1-495.981,54.679-495.638ZM66.327-488.6c0,4.06.019,4.385.381,4.747.419.458.362.439,3.05,1.087a33.024,33.024,0,0,1,10.123,4.327c2.249,1.449,2.135,1.487,5.776-2.116l3.088-3.031,3.184,3.184,3.165,3.184-3.031,3.069c-3.6,3.641-3.565,3.527-2.116,5.776a33.7,33.7,0,0,1,4.327,10.084c.648,2.726.629,2.669,1.087,3.088.362.362.686.381,4.747.381h4.346v9.15h-4.346c-4.06,0-4.385.019-4.747.381-.458.419-.438.362-1.087,3.088a32.968,32.968,0,0,1-2.917,7.625L90.271-432.5l-2.23-2.23-2.249-2.23.477-.915a28.554,28.554,0,0,0,2.059-5.643,27.508,27.508,0,0,0-3.813-22.094,32.722,32.722,0,0,0-6.348-6.653,32.265,32.265,0,0,0-7.74-4.06,21.879,21.879,0,0,0-8.769-1.277,20.148,20.148,0,0,0-5.929.515,27.73,27.73,0,0,0-13.306,7.3,27.278,27.278,0,0,0-7.854,15.346,33.37,33.37,0,0,0,.362,10.294,26.677,26.677,0,0,0,7,12.83,27.153,27.153,0,0,0,14.355,7.988,34.547,34.547,0,0,0,10.485.1,31.827,31.827,0,0,0,6.71-2.211l1.582-.743,2.211,2.23,2.211,2.23-1.373.743a34.548,34.548,0,0,1-8.864,3.431c-.705.153-1.487.324-1.716.381a2.032,2.032,0,0,0-.82.515c-.362.4-.381.667-.381,4.766v4.346h-9.15v-4.346c0-4.06-.019-4.385-.381-4.747-.419-.458-.362-.438-3.088-1.087a33.7,33.7,0,0,1-10.084-4.327c-2.249-1.449-2.135-1.487-5.776,2.116l-3.088,3.031-3.184-3.184-3.165-3.184,3.031-3.069c3.6-3.641,3.565-3.527,2.116-5.776a33.757,33.757,0,0,1-4.308-10.027c-.629-2.593-.82-3.107-1.258-3.336a30.724,30.724,0,0,0-4.632-.191H19.05v-9.15H23.4c4.06,0,4.385-.019,4.747-.381.458-.419.438-.362,1.087-3.088a33.7,33.7,0,0,1,4.327-10.084c1.449-2.249,1.487-2.135-2.116-5.776l-3.031-3.088,3.184-3.184,3.184-3.164,3.069,3.031c3.66,3.622,3.508,3.565,5.852,2.078a34.129,34.129,0,0,1,10.428-4.385c2.059-.477,2.631-.705,2.859-1.144a30.716,30.716,0,0,0,.191-4.632v-4.308h9.15Zm-.858,14.24a21.7,21.7,0,0,1,6.863,2.173,24.318,24.318,0,0,1,11.876,31.435,5.048,5.048,0,0,1-.705,1.373c-.267,0-8.388-8.331-8.712-8.96-.305-.572-.362-1.029-.324-3.031a16.455,16.455,0,0,0-.877-6.443,15.41,15.41,0,0,0-10.523-9.7,20.616,20.616,0,0,0-7.568-.019c-1.735.5-3.222,1.182-3.45,1.62-.553,1.048-.419,1.239,3.984,5.662l4.194,4.213v4.27h-4.27l-4.213-4.194c-4.423-4.4-4.613-4.537-5.662-3.984-.438.229-1.125,1.716-1.62,3.45a20.615,20.615,0,0,0,.019,7.568,15.41,15.41,0,0,0,9.7,10.523,16.455,16.455,0,0,0,6.443.877c2-.038,2.459.019,3.031.324.629.324,8.96,8.445,8.96,8.712a18.367,18.367,0,0,1-4.041,1.678,26.089,26.089,0,0,1-11.571.5,24.532,24.532,0,0,1-19.483-20.855,25.751,25.751,0,0,1-.114-4.194A24.357,24.357,0,0,1,58.3-474.439,30.09,30.09,0,0,1,65.469-474.363Zm-3.622,9.722a13.767,13.767,0,0,1,5.49,2.783,13.412,13.412,0,0,1,3.489,5.376c.458,1.411.515,1.868.553,4.709.038,3.3.172,4,1.087,5.509.229.381,7.32,7.625,15.784,16.128,16.394,16.471,15.823,15.823,15.823,17.634a4.8,4.8,0,0,1-4.575,4.575c-1.811,0-1.163.572-17.634-15.823-9.322-9.284-15.784-15.594-16.3-15.88a8.3,8.3,0,0,0-5.147-.991,11.485,11.485,0,0,1-3.527-.191,12.135,12.135,0,0,1-9.76-12.582,12.851,12.851,0,0,1,.229-2.059c.114-.286.743.248,3.7,3.184l3.565,3.546h3.87c5.166,0,4.785.381,4.785-4.785v-3.87l-3.565-3.565c-3.813-3.851-3.641-3.565-2.249-3.851A14.47,14.47,0,0,1,61.847-464.641Z" fill="none" stroke="#434241" stroke-width="1.5"/>
  </g>
</svg>
