<svg xmlns="http://www.w3.org/2000/svg" viewBox="0 0 160.801 127.4">
  <defs>
    <style>
      .cls-1 {
        fill: none;
        stroke: #434241;
        stroke-linecap: round;
        stroke-linejoin: round;
        stroke-miterlimit: 10;
        stroke-width: 2px;
      }
    </style>
  </defs>
  <g id="Group_396" data-name="Group 396" transform="translate(-91.4 -29.9)">
    <rect id="Rectangle_1575" data-name="Rectangle 1575" class="cls-1" width="158.8" height="11.9" transform="translate(92.4 131.1)"/>
    <rect id="Rectangle_1576" data-name="Rectangle 1576" class="cls-1" width="13.2" height="13.2" transform="translate(92.4 143.1)"/>
    <rect id="Rectangle_1577" data-name="Rectangle 1577" class="cls-1" width="13.2" height="13.2" transform="translate(237.9 143.1)"/>
    <rect id="Rectangle_1578" data-name="Rectangle 1578" class="cls-1" width="13.2" height="13.2" transform="translate(165.2 143.1)"/>
    <rect id="Rectangle_1579" data-name="Rectangle 1579" class="cls-1" width="35.4" height="35.4" transform="translate(109.1 86.9)"/>
    <rect id="Rectangle_1580" data-name="Rectangle 1580" class="cls-1" width="35.4" height="35.4" transform="translate(154 86.9)"/>
    <path id="Path_442" data-name="Path 442" class="cls-1" d="M166.1,42.7h23.3V78.1H154l-.1-22.6"/>
    <rect id="Rectangle_1581" data-name="Rectangle 1581" class="cls-1" width="35.4" height="35.4" transform="translate(198.2 86.9)"/>
    <g id="Group_390" data-name="Group 390">
      <line id="Line_157" data-name="Line 157" class="cls-1" x1="8.7" y2="10.4" transform="translate(124.3 99.4)"/>
      <line id="Line_158" data-name="Line 158" class="cls-1" x2="3.8" y2="4.5" transform="translate(120.5 105.3)"/>
    </g>
    <g id="Group_391" data-name="Group 391">
      <line id="Line_159" data-name="Line 159" class="cls-1" x1="8.7" y2="10.4" transform="translate(169.3 99.4)"/>
      <line id="Line_160" data-name="Line 160" class="cls-1" x2="3.8" y2="4.5" transform="translate(165.5 105.3)"/>
    </g>
    <g id="Group_392" data-name="Group 392">
      <line id="Line_161" data-name="Line 161" class="cls-1" x1="8.8" y2="10.4" transform="translate(213.4 99.4)"/>
      <line id="Line_162" data-name="Line 162" class="cls-1" x2="3.8" y2="4.5" transform="translate(209.6 105.3)"/>
    </g>
    <g id="Group_395" data-name="Group 395">
      <g id="Group_393" data-name="Group 393">
        <line id="Line_163" data-name="Line 163" class="cls-1" x2="5.8" transform="translate(176.7 49.5)"/>
        <line id="Line_164" data-name="Line 164" class="cls-1" y1="5.9" transform="translate(182.5 49.5)"/>
        <line id="Line_165" data-name="Line 165" class="cls-1" y2="5.9" transform="translate(182.5 65.4)"/>
        <line id="Line_166" data-name="Line 166" class="cls-1" x2="5.8" transform="translate(176.7 71.3)"/>
        <line id="Line_167" data-name="Line 167" class="cls-1" x1="5.8" transform="translate(160.8 71.3)"/>
        <line id="Line_168" data-name="Line 168" class="cls-1" y2="5.9" transform="translate(160.8 65.4)"/>
        <line id="Line_169" data-name="Line 169" class="cls-1" y1="5.9" transform="translate(160.8 49.5)"/>
        <line id="Line_170" data-name="Line 170" class="cls-1" x1="5.8" transform="translate(160.8 49.5)"/>
      </g>
      <g id="Group_394" data-name="Group 394">
        <line id="Line_171" data-name="Line 171" class="cls-1" y2="9.6" transform="translate(173.5 55.6)"/>
        <line id="Line_172" data-name="Line 172" class="cls-1" y2="9.6" transform="translate(169.8 55.6)"/>
        <line id="Line_173" data-name="Line 173" class="cls-1" y2="4.6" transform="translate(177.2 58.1)"/>
        <line id="Line_174" data-name="Line 174" class="cls-1" y2="4.6" transform="translate(166.1 58.1)"/>
      </g>
    </g>
    <circle id="Ellipse_188" data-name="Ellipse 188" class="cls-1" cx="9.4" cy="9.4" r="9.4" transform="translate(141.3 30.9)"/>
    <line id="Line_175" data-name="Line 175" class="cls-1" y2="6.5" transform="translate(150.3 35.4)"/>
    <line id="Line_176" data-name="Line 176" class="cls-1" x1="4.7" transform="translate(150.3 41.9)"/>
  </g>
</svg>
