<svg xmlns="http://www.w3.org/2000/svg" width="81.465" height="86.056" viewBox="0 0 81.465 86.056">
  <g id="_1774e559f4e1b9450e5ec4d2a0669066" data-name="1774e559f4e1b9450e5ec4d2a0669066" transform="translate(-69.8 -10)">
    <g id="Path_1027" data-name="Path 1027" transform="translate(-0.181 -785.577)" fill="none" stroke-linecap="square">
      <path d="M143.209,881.632l-64.99-.009C73.683,881.623,70,878.2,70,874a2.913,2.913,0,0,1,3.02-2.8c1.676,0,1.941.6,1.941,2.143,0,2.669,1.629,3.082,2.831,3.082l63.882.009c1.4-.053,4-.123,4-3,0-1.546,1.07-2.222,2.736-2.222a2.919,2.919,0,0,1,3.02,2.8c0,4.2-3.683,7.622-8.218,7.622Z" stroke="none"/>
      <path d="M 143.2087097167969 880.1322021484375 L 143.2085113525391 880.1322021484375 C 146.9130706787109 880.1322021484375 149.9269866943359 877.3858642578125 149.927001953125 874.0101318359375 C 149.927001953125 873.2926025390625 149.2449645996094 872.7088623046875 148.4066162109375 872.7088623046875 C 147.6743469238281 872.7088623046875 147.3914947509766 872.8809204101562 147.3222351074219 872.93359375 C 147.2806854248047 872.9652709960938 147.1703033447266 873.04931640625 147.1703033447266 873.4306640625 C 147.1703033447266 875.240966796875 146.3520965576172 876.6277465820312 144.8663940429688 877.3355712890625 C 143.7742767333984 877.8558959960938 142.5687561035156 877.9012451171875 141.7710418701172 877.9312744140625 L 141.6744842529297 877.933837890625 L 77.79237365722656 877.925048828125 C 75.0804443359375 877.925048828125 73.46137237548828 876.2120971679688 73.46137237548828 873.3428955078125 C 73.46137237548828 873.0333251953125 73.44817352294922 872.8402709960938 73.43359375 872.721435546875 C 73.34305572509766 872.7100830078125 73.20987701416016 872.7001953125 73.02036285400391 872.7001953125 C 72.18202972412109 872.7001953125 71.50000762939453 873.2839965820312 71.50000762939453 874.0015869140625 C 71.50000762939453 877.377197265625 74.51387786865234 880.1234130859375 78.2186279296875 880.1234130859375 L 143.2087097167969 880.1322021484375 M 143.2085113525391 881.6322021484375 L 78.21842956542969 881.6234130859375 C 73.68315887451172 881.6234130859375 70.00000762939453 878.1988525390625 70.00000762939453 874.0015869140625 C 70.00000762939453 872.4556884765625 71.34449005126953 871.2001953125 73.02036285400391 871.2001953125 C 74.69622802734375 871.2001953125 74.96137237548828 871.797119140625 74.96137237548828 873.3428955078125 C 74.96137237548828 876.0123291015625 76.58987426757812 876.425048828125 77.79237365722656 876.425048828125 L 141.6746978759766 876.433837890625 C 143.0759735107422 876.380859375 145.6703033447266 876.3106689453125 145.6703033447266 873.4306640625 C 145.6703033447266 871.8851318359375 146.7402038574219 871.2088623046875 148.4066162109375 871.2088623046875 C 150.0730438232422 871.2088623046875 151.427001953125 872.46484375 151.427001953125 874.0101318359375 C 151.4269714355469 878.2076416015625 147.7438507080078 881.6322021484375 143.2085113525391 881.6322021484375 Z" stroke="none" fill="#434241"/>
    </g>
    <g id="Path_1028" data-name="Path 1028" transform="translate(-91.437 -137.376)" fill="none" stroke-linecap="square">
      <path d="M212.214,165.816h-38.6a2.615,2.615,0,1,1,0-5.216h38.6a2.615,2.615,0,1,1,0,5.216Z" stroke="none"/>
      <path d="M 212.2142181396484 164.3160705566406 C 212.9254302978516 164.3160705566406 213.5262908935547 163.8087005615234 213.5262908935547 163.2081298828125 C 213.5262908935547 162.5971221923828 212.9376983642578 162.1000518798828 212.2142181396484 162.1000518798828 L 173.6120910644531 162.1000518798828 C 172.8886413574219 162.1000518798828 172.3000640869141 162.5971221923828 172.3000640869141 163.2081298828125 C 172.3000640869141 163.8190460205078 172.8886413574219 164.3160705566406 173.6120910644531 164.3160705566406 L 212.2142181396484 164.3160705566406 M 212.2142181396484 165.8160705566406 L 173.6120910644531 165.8160705566406 C 172.0593566894531 165.8160705566406 170.8000640869141 164.6482086181641 170.8000640869141 163.2081298828125 C 170.8000640869141 161.7679748535156 172.0593566894531 160.6000518798828 173.6120910644531 160.6000518798828 L 212.2142181396484 160.6000518798828 C 213.7669982910156 160.6000518798828 215.0262908935547 161.7679748535156 215.0262908935547 163.2081298828125 C 215.0262908935547 164.6482086181641 213.757568359375 165.8160705566406 212.2142181396484 165.8160705566406 Z" stroke="none" fill="#434241"/>
    </g>
    <g id="Path_1029" data-name="Path 1029" transform="translate(-96.778 -234.067)" fill="none" stroke-linecap="square">
      <path d="M208.191,271.992H179.607a2.7,2.7,0,1,1,0-5.392h28.585a2.7,2.7,0,1,1,0,5.392Z" stroke="none"/>
      <path d="M 208.1914672851562 270.4915771484375 C 208.9611053466797 270.4915771484375 209.5910186767578 269.9534912109375 209.5982055664062 269.2910461425781 C 209.5951385498047 268.6338500976562 208.9652557373047 268.0999755859375 208.1914672851562 268.0999755859375 L 179.6067962646484 268.0999755859375 C 178.8310852050781 268.0999755859375 178.2000122070312 268.6364440917969 178.2000122070312 269.2958374023438 C 178.2000122070312 269.9551696777344 178.8310852050781 270.4915771484375 179.6067962646484 270.4915771484375 L 208.1914672851562 270.4915771484375 M 208.1914672851562 271.9915771484375 L 179.6067962646484 271.9915771484375 C 178.0066070556641 271.9915771484375 176.7000122070312 270.7885131835938 176.7000122070312 269.2958374023438 C 176.7000122070312 267.8029479980469 177.9971923828125 266.5999755859375 179.6067962646484 266.5999755859375 L 208.1914672851562 266.5999755859375 C 209.7916107177734 266.5999755859375 211.0982208251953 267.8029479980469 211.0982208251953 269.2958374023438 C 211.0887145996094 270.7885131835938 209.7916107177734 271.9915771484375 208.1914672851562 271.9915771484375 Z" stroke="none" fill="#434241"/>
    </g>
    <g id="Path_1030" data-name="Path 1030" transform="translate(-91.347 -343.256)" fill="none" stroke-linecap="square">
      <path d="M194.257,391.692h-20.65a2.7,2.7,0,1,1,0-5.392h20.65a2.7,2.7,0,1,1,0,5.392Z" stroke="none"/>
      <path d="M 194.257080078125 390.191650390625 C 195.0327758789062 390.191650390625 195.6638488769531 389.6552429199219 195.6638488769531 388.9958801269531 C 195.6638488769531 388.3364868164062 195.0327758789062 387.800048828125 194.257080078125 387.800048828125 L 173.6067962646484 387.800048828125 C 172.8310852050781 387.800048828125 172.2000122070312 388.3364868164062 172.2000122070312 388.9958801269531 C 172.2000122070312 389.6552429199219 172.8310852050781 390.191650390625 173.6067962646484 390.191650390625 L 194.257080078125 390.191650390625 M 194.257080078125 391.691650390625 L 173.6067962646484 391.691650390625 C 172.0066375732422 391.691650390625 170.7000122070312 390.4886169433594 170.7000122070312 388.9958801269531 C 170.7000122070312 387.5119018554688 171.9971771240234 386.300048828125 173.6067962646484 386.300048828125 L 194.257080078125 386.300048828125 C 195.8572235107422 386.300048828125 197.1638488769531 387.5031127929688 197.1638488769531 388.9958801269531 C 197.1638488769531 390.4886169433594 195.8666381835938 391.691650390625 194.257080078125 391.691650390625 Z" stroke="none" fill="#434241"/>
    </g>
    <g id="Path_1031" data-name="Path 1031" transform="translate(-100.219 -459.834)" fill="none" stroke-linecap="square">
      <path d="M197.193,519.843H183.6a2.88,2.88,0,1,1,0-5.743h13.6a2.88,2.88,0,1,1,0,5.743Z" stroke="none"/>
      <path d="M 197.1925506591797 518.3431396484375 C 198.0726623535156 518.3431396484375 198.7886810302734 517.7279052734375 198.7886810302734 516.9716796875 C 198.7886810302734 516.2154541015625 198.0726623535156 515.6002197265625 197.1925506591797 515.6002197265625 L 183.5961608886719 515.6002197265625 C 182.716064453125 515.6002197265625 182.0000610351562 516.2154541015625 182.0000610351562 516.9716796875 C 182.0000610351562 517.7279052734375 182.716064453125 518.3431396484375 183.5961608886719 518.3431396484375 L 197.1925506591797 518.3431396484375 M 197.1925506591797 519.8431396484375 L 183.5961608886719 519.8431396484375 C 181.8824462890625 519.8431396484375 180.5000610351562 518.5610961914062 180.5000610351562 516.9716796875 C 180.5000610351562 515.3823852539062 181.8824462890625 514.1002197265625 183.5961608886719 514.1002197265625 L 197.1925506591797 514.1002197265625 C 198.9062957763672 514.1002197265625 200.2886810302734 515.3823852539062 200.2886810302734 516.9716796875 C 200.2886810302734 518.5610961914062 198.8968963623047 519.8431396484375 197.1925506591797 519.8431396484375 Z" stroke="none" fill="#434241"/>
    </g>
    <g id="Path_1032" data-name="Path 1032" transform="translate(0 0)" fill="none" stroke-linecap="square">
      <path d="M72.82,92.113a2.919,2.919,0,0,1-3.02-2.8V17.631c0-4.206,3.693-7.622,8.218-7.622L143,10h.009a8.5,8.5,0,0,1,5.814,2.23,7.3,7.3,0,0,1,2.4,5.392l.038,70.917a2.922,2.922,0,0,1-3,2.819h-.019c-1.657,0-2.717-1.791-2.736-3.328l.133-4.689V17.692A2.4,2.4,0,0,0,143,15.058h0l-64.99.009a2.858,2.858,0,0,0-2.831,3.152l-.407,69.538c.009,1.554-.284,4.355-1.95,4.355Z" stroke="none"/>
      <path d="M 72.74819183349609 90.61160278320312 C 72.95474243164062 90.35536956787109 73.28060913085938 89.36051940917969 73.2708740234375 87.76673889160156 L 73.27082824707031 87.75776672363281 L 73.2708740234375 87.74880218505859 L 73.67799377441406 18.21405792236328 C 73.68038177490234 15.16297054290771 75.85793304443359 13.56676578521729 78.00877380371094 13.56676578521729 L 142.9991302490234 13.5579776763916 C 145.1961364746094 13.5579776763916 146.1930541992188 14.72900104522705 146.5917510986328 15.42703628540039 C 146.9560546875 16.0648136138916 147.1407470703125 16.82697677612305 147.1407470703125 17.69234275817871 L 147.1401519775391 83.38300323486328 L 147.0085906982422 88.03746795654297 C 147.0299072265625 88.86861419677734 147.5792083740234 89.85787200927734 148.2445678710938 89.85787200927734 L 148.2542266845703 89.85787200927734 C 149.0922241210938 89.84600067138672 149.7693023681641 89.25970458984375 149.7649230957031 88.54830932617188 L 149.7649078369141 88.53989410400391 L 149.7270355224609 17.62208366394043 C 149.7270355224609 16.00570678710938 149.0434112548828 14.48149490356445 147.8021240234375 13.33024787902832 C 146.5295104980469 12.15000057220459 144.8271484375 11.50000095367432 143.0085906982422 11.50000095367432 L 142.9993286132812 11.50000095367432 L 78.01846313476562 11.5087890625 C 74.31388092041016 11.5087890625 71.30000305175781 14.25514221191406 71.30000305175781 17.6308708190918 L 71.30000305175781 89.31182098388672 C 71.30000305175781 90.00860595703125 71.94324493408203 90.57923126220703 72.74819183349609 90.61160278320312 M 72.82038116455078 92.11304473876953 C 71.15399932861328 92.11304473876953 69.80000305175781 90.85733032226562 69.80000305175781 89.31182098388672 L 69.80000305175781 17.6308708190918 C 69.80000305175781 13.4246711730957 73.49262237548828 10.0087890625 78.01846313476562 10.0087890625 L 143.0085906982422 10.00000095367432 C 145.2052307128906 10.00000095367432 147.2693176269531 10.79031848907471 148.8221130371094 12.23043632507324 C 150.3748779296875 13.67055416107178 151.2270355224609 15.58484840393066 151.2270355224609 17.62208366394043 L 151.2649078369141 88.53909301757812 C 151.2743988037109 90.08458709716797 149.9299011230469 91.34029388427734 148.263427734375 91.35787200927734 L 148.2445678710938 91.35787200927734 C 146.5876007080078 91.35787200927734 145.5271453857422 89.56650543212891 145.5082092285156 88.02977752685547 L 145.6407470703125 83.34062194824219 L 145.6407470703125 17.69234275817871 C 145.6407470703125 17.14790725708008 145.5839538574219 15.0579776763916 142.9991302490234 15.0579776763916 L 78.00897979736328 15.06676578521729 C 76.79705810546875 15.06676578521729 75.17798614501953 15.90097713470459 75.17798614501953 18.21921348571777 L 74.77085113525391 87.75757598876953 C 74.78034210205078 89.31185913085938 74.48682403564453 92.11304473876953 72.82038116455078 92.11304473876953 Z" stroke="none" fill="#434241"/>
    </g>
    <path id="Path_1033" data-name="Path 1033" d="M419.593,445.069l7.584-2.213a1.276,1.276,0,0,0,.53-.29l22.582-20.943a1.142,1.142,0,0,0,0-1.7l-5.208-4.821a1.37,1.37,0,0,0-1.827,0l-22.572,20.934a1.236,1.236,0,0,0-.322.483l-2.377,7.034a1.244,1.244,0,0,0,1.61,1.51m29.844-35.7-2.026,1.87a1.142,1.142,0,0,0,0,1.695l5.207,4.83a1.371,1.371,0,0,0,1.827,0l1.108-1.027a3.336,3.336,0,0,0,0-4.952l-2.6-2.406a2.6,2.6,0,0,0-3.512-.009" transform="translate(-315.158 -363.678)" fill="none" stroke="#434241" stroke-linecap="square" stroke-width="1.5"/>
  </g>
</svg>
