<svg xmlns="http://www.w3.org/2000/svg" width="87.639" height="87.624" viewBox="0 0 87.639 87.624">
  <g id="_372181" data-name="372181" transform="translate(1.002 0.996)">
    <path id="Path_1034" data-name="Path 1034" d="M62.047,47.051l-5.723,5.723-5.729-5.729L64.34,33.3A16.944,16.944,0,0,0,84.706,10.8L83.3,7.223l-9,9-3.633-.973L69.7,11.613l9-9-3.578-1.4a16.944,16.944,0,0,0-22.5,20.365L38.876,35.326,20.418,16.867l4.9-4.9L10.136.006,0,10.142,11.964,25.321l4.9-4.9L35.32,38.882,23.186,51.017A17.834,17.834,0,1,0,34.9,62.735L47.039,50.6l5.729,5.729-5.723,5.723L67.764,82.772a10.608,10.608,0,0,0,15-15ZM6.716,10.538l3.816-3.816,7.224,5.694L12.41,17.762ZM58.441,22.874l-.6-1.532A11.914,11.914,0,0,1,69.126,5.076L64.092,10.11l2.476,9.242,9.242,2.477,5.034-5.034A11.914,11.914,0,0,1,64.578,28.08l-1.532-.6L47.038,43.488l-4.606-4.606ZM29.019,61.508l.657,1.559a12.836,12.836,0,1,1-6.822-6.822l1.559.657L38.876,42.438l4.606,4.606Zm33.028-7.345,4.606,4.606-7.89,7.89-4.606-4.606ZM79.21,79.216a5.579,5.579,0,0,1-7.89,0l-9-9,7.89-7.89,9,9a5.585,5.585,0,0,1,0,7.89Z" transform="translate(0 0)" fill="none" stroke="#434241" stroke-width="1.5"/>
    <path id="Path_1035" data-name="Path 1035" d="M65.486,356.444a8.286,8.286,0,1,0,5.859,2.427A8.232,8.232,0,0,0,65.486,356.444Zm2.3,10.589a3.257,3.257,0,1,1,0-4.606A3.236,3.236,0,0,1,67.789,367.033Z" transform="translate(-47.611 -296.685)" fill="none" stroke="#434241" stroke-width="1.5"/>
  </g>
</svg>
