<svg xmlns="http://www.w3.org/2000/svg" width="28.5" height="28.5" viewBox="0 0 28.5 28.5">
  <g id="settings-svgrepo-com" transform="translate(0.25 0.25)">
    <path id="Path_1467" data-name="Path 1467" d="M26.559,10.889h-2.62a1.006,1.006,0,0,1-.711-1.717L25.08,7.32a1.443,1.443,0,0,0,0-2.039L22.719,2.92a1.476,1.476,0,0,0-2.039,0L18.828,4.772a1.005,1.005,0,0,1-1.717-.711V1.441A1.443,1.443,0,0,0,15.67,0H12.33a1.443,1.443,0,0,0-1.441,1.441v2.62a1.005,1.005,0,0,1-1.717.711L7.32,2.92a1.476,1.476,0,0,0-2.039,0L2.92,5.281a1.443,1.443,0,0,0,0,2.039L4.772,9.172a1.006,1.006,0,0,1-.711,1.717H1.441A1.443,1.443,0,0,0,0,12.33v3.339a1.443,1.443,0,0,0,1.441,1.442h2.62a1.006,1.006,0,0,1,.711,1.717L2.92,20.68a1.443,1.443,0,0,0,0,2.039L5.281,25.08a1.475,1.475,0,0,0,2.039,0l1.852-1.852a1.006,1.006,0,0,1,1.717.711v2.62A1.443,1.443,0,0,0,12.33,28h3.339a1.443,1.443,0,0,0,1.441-1.441v-2.62a1.006,1.006,0,0,1,1.717-.711l1.852,1.852a1.476,1.476,0,0,0,2.039,0l2.361-2.361a1.443,1.443,0,0,0,0-2.039l-1.852-1.852a1.006,1.006,0,0,1,.712-1.717h2.62A1.443,1.443,0,0,0,28,15.67V12.33A1.443,1.443,0,0,0,26.559,10.889Zm.4,4.781a.4.4,0,0,1-.4.4h-2.62a2.043,2.043,0,0,0-1.445,3.488l1.852,1.852a.4.4,0,0,1,0,.572l-2.361,2.361a.4.4,0,0,1-.572,0l-1.852-1.852a2.043,2.043,0,0,0-3.488,1.445v2.62a.4.4,0,0,1-.4.4H12.33a.4.4,0,0,1-.4-.4v-2.62a2.011,2.011,0,0,0-1.261-1.887,2.066,2.066,0,0,0-.795-.161,2.014,2.014,0,0,0-1.432.6L6.587,24.346a.4.4,0,0,1-.572,0L3.653,21.985a.4.4,0,0,1,0-.572l1.852-1.852a2.043,2.043,0,0,0-1.445-3.487H1.441a.4.4,0,0,1-.4-.4V12.33a.4.4,0,0,1,.4-.4h2.62A2.043,2.043,0,0,0,5.506,8.438L3.653,6.587a.4.4,0,0,1,0-.572L6.014,3.653a.4.4,0,0,1,.572,0L8.438,5.505a2.043,2.043,0,0,0,3.488-1.444V1.441a.4.4,0,0,1,.4-.4h3.339a.405.405,0,0,1,.4.4v2.62a2.043,2.043,0,0,0,3.488,1.445l1.852-1.852a.4.4,0,0,1,.572,0l2.361,2.361a.4.4,0,0,1,0,.572L22.494,8.439a2.043,2.043,0,0,0,1.445,3.488h2.62a.4.4,0,0,1,.4.4Z" fill="#424244" stroke="#424244" stroke-width="0.5"/>
    <path id="Path_1468" data-name="Path 1468" d="M22.667,18a4.667,4.667,0,1,0,4.667,4.667A4.672,4.672,0,0,0,22.667,18Zm0,8.3a3.63,3.63,0,1,1,3.63-3.63A3.634,3.634,0,0,1,22.667,26.3Z" transform="translate(-8.667 -8.667)" fill="#424244" stroke="#424244" stroke-width="0.5"/>
  </g>
</svg>
