<svg xmlns="http://www.w3.org/2000/svg" viewBox="0 0 22.008 23.941">
  <defs>
    <style>
      .cls-1 {
        fill: #ffffff;
      }

      .cls-2 {
        fill: none;
        stroke: #ffffff;
      }
    </style>
  </defs>
  <g id="Group_2546" data-name="Group 2546" transform="translate(-930.059 -400)">
    <path id="Path_443" data-name="Path 443" class="cls-1" d="M.5,18c-.3,0-.5-.091-.5-.228V.228C0,.091.2,0,.5,0s.5.091.5.228V17.772C1,17.908.8,18,.5,18Z" transform="translate(932.728 403)"/>
    <path id="Path_444" data-name="Path 444" class="cls-1" d="M17.4,18c-.3,0-.5-.091-.5-.228V.228c0-.137.2-.228.5-.228s.5.091.5.228V17.772C17.9,17.908,17.7,18,17.4,18Z" transform="translate(919.678 403)"/>
    <path id="Path_445" data-name="Path 445" class="cls-1" d="M9.1,21.211c-.3,0-.5-.091-.5-.228V6.128c0-.137.2-.228.5-.228s.5.091.5.228V20.96C9.6,21.1,9.4,21.211,9.1,21.211Z" transform="translate(926.088 398.444)"/>
    <path id="Path_446" data-name="Path 446" class="cls-1" d="M34.6,18c-.3,0-.5-.091-.5-.228V.228c0-.137.2-.228.5-.228s.5.091.5.228V17.772C35.1,17.908,34.9,18,34.6,18Z" transform="translate(906.397 403)"/>
    <path id="Path_447" data-name="Path 447" class="cls-1" d="M26.3,21.211c-.3,0-.5-.091-.5-.228V6.128c0-.137.2-.228.5-.228s.5.091.5.228V20.96C26.8,21.1,26.55,21.211,26.3,21.211Z" transform="translate(912.807 398.444)"/>
    <path id="Path_448" data-name="Path 448" class="cls-1" d="M34.9,18c-.3,0-.5-.091-.5-.228V.228c0-.137.2-.228.5-.228s.5.091.5.228V17.772C35.4,17.908,35.15,18,34.9,18Z" transform="translate(906.166 403)"/>
    <path id="Path_449" data-name="Path 449" class="cls-1" d="M51.6,18c-.3,0-.5-.091-.5-.228V.228c0-.137.2-.228.5-.228s.5.091.5.228V17.772C52.1,17.908,51.85,18,51.6,18Z" transform="translate(893.271 403)"/>
    <path id="Path_450" data-name="Path 450" class="cls-1" d="M43.2,21.211c-.3,0-.5-.091-.5-.228V6.128c0-.137.2-.228.5-.228s.5.091.5.228V20.96C43.7,21.1,43.5,21.211,43.2,21.211Z" transform="translate(899.757 398.444)"/>
    <path id="Path_451" data-name="Path 451" class="cls-1" d="M68.5,18c-.3,0-.5-.091-.5-.228V.228c0-.137.2-.228.5-.228s.5.091.5.228V17.772C69,17.908,68.75,18,68.5,18Z" transform="translate(880.221 403)"/>
    <path id="Path_452" data-name="Path 452" class="cls-1" d="M60.2,21.211c-.3,0-.5-.091-.5-.228V6.128c0-.137.2-.228.5-.228s.5.091.5.228V20.96C60.7,21.1,60.45,21.211,60.2,21.211Z" transform="translate(886.63 398.444)"/>
    <path id="Path_1169" data-name="Path 1169" class="cls-2" d="M6,0H1.125V5.008" transform="translate(929.5 400.5)"/>
    <path id="Path_1170" data-name="Path 1170" class="cls-2" d="M6,0H1.125V5.008" transform="translate(930.559 424.566) rotate(-90)"/>
    <path id="Path_1171" data-name="Path 1171" class="cls-2" d="M6,0H1.125V5.008" transform="translate(952.625 423.441) rotate(180)"/>
    <path id="Path_1172" data-name="Path 1172" class="cls-2" d="M6,0H1.125V5.008" transform="translate(951.566 399.375) rotate(90)"/>
  </g>
</svg>
