<svg id="Group_980" data-name="Group 980" xmlns="http://www.w3.org/2000/svg" width="155.579" height="69.164" viewBox="0 0 155.579 69.164">
  <g id="Group_955" data-name="Group 955" transform="translate(0 6.042)">
    <path id="Path_572" data-name="Path 572" d="M86.938,85.525h0A13.927,13.927,0,0,1,87.812,57.7h7.711a.795.795,0,1,1,0,1.59H87.812a12.338,12.338,0,0,0-.874,24.645.718.718,0,0,1,.715.874C87.733,85.207,87.335,85.525,86.938,85.525Z" transform="translate(-73.9 -57.7)" fill="#434241"/>
  </g>
  <g id="Group_956" data-name="Group 956" transform="translate(18.205 6.042)">
    <path id="Path_573" data-name="Path 573" d="M123.353,85.525H97.595a.795.795,0,0,1,0-1.59h25.758a12.322,12.322,0,0,0,0-24.645H108.645a.795.795,0,1,1,0-1.59h14.707a13.912,13.912,0,1,1,0,27.825Z" transform="translate(-96.8 -57.7)" fill="#434241"/>
  </g>
  <g id="Group_957" data-name="Group 957" transform="translate(43.327 14.548)">
    <path id="Path_574" data-name="Path 574" d="M129.195,79.212a.751.751,0,0,1-.795-.795V69.195a.795.795,0,1,1,1.59,0v9.222A.751.751,0,0,1,129.195,79.212Z" transform="translate(-128.4 -68.4)" fill="#434241"/>
  </g>
  <g id="Group_958" data-name="Group 958" transform="translate(37.444 14.548)">
    <path id="Path_575" data-name="Path 575" d="M121.795,79.212a.751.751,0,0,1-.795-.795V69.195a.795.795,0,0,1,1.59,0v9.222A.8.8,0,0,1,121.795,79.212Z" transform="translate(-121 -68.4)" fill="#434241"/>
  </g>
  <g id="Group_959" data-name="Group 959" transform="translate(31.561 14.469)">
    <path id="Path_576" data-name="Path 576" d="M114.395,79.35a.751.751,0,0,1-.795-.795v-9.46a.795.795,0,1,1,1.59,0v9.46A.855.855,0,0,1,114.395,79.35Z" transform="translate(-113.6 -68.3)" fill="#434241"/>
  </g>
  <g id="Group_960" data-name="Group 960" transform="translate(25.599 14.071)">
    <path id="Path_577" data-name="Path 577" d="M130.506,79.566H106.895a.751.751,0,0,1-.795-.795V68.595a.751.751,0,0,1,.795-.795h23.611a.751.751,0,0,1,.795.795V78.771A.751.751,0,0,1,130.506,79.566Zm-22.816-1.59h22.021V69.39H107.69v8.586Z" transform="translate(-106.1 -67.8)" fill="#434241"/>
  </g>
  <g id="Group_961" data-name="Group 961" transform="translate(13.068)">
    <path id="Path_578" data-name="Path 578" d="M99.53,57.732H94.362a.795.795,0,1,1,0-1.59H99.53a2.226,2.226,0,0,0,0-4.452H93.965A2.141,2.141,0,0,0,92.057,52.8a1.13,1.13,0,0,0-.159.477.8.8,0,0,1-1.51-.556,2.824,2.824,0,0,1,.318-.715A3.774,3.774,0,0,1,93.965,50.1H99.53a3.869,3.869,0,0,1,3.816,3.816A3.817,3.817,0,0,1,99.53,57.732Z" transform="translate(-90.337 -50.1)" fill="#434241"/>
  </g>
  <g id="Group_962" data-name="Group 962" transform="translate(0.504 32.306)">
    <path id="Path_579" data-name="Path 579" d="M95.892,127.6H75.3a.981.981,0,0,1-.636-.318.773.773,0,0,1-.079-.715l11.925-35.3a.8.8,0,0,1,1.51.556L76.415,126.005H95.256l3.657-10.732a.8.8,0,0,1,1.51.556l-3.816,11.289A.805.805,0,0,1,95.892,127.6Z" transform="translate(-74.534 -90.737)" fill="#434241"/>
  </g>
  <g id="Group_963" data-name="Group 963" transform="translate(20.352 32.197)">
    <path id="Path_580" data-name="Path 580" d="M109.835,101.571a.292.292,0,0,1-.239-.079.8.8,0,0,1-.477-1.033L111.9,92.19H100.295a.795.795,0,0,1,0-1.59h12.72a.981.981,0,0,1,.636.318.773.773,0,0,1,.079.715l-3.1,9.3A.811.811,0,0,1,109.835,101.571Z" transform="translate(-99.5 -90.6)" fill="#434241"/>
  </g>
  <g id="Group_964" data-name="Group 964" transform="translate(24.088 41.722)">
    <path id="Path_581" data-name="Path 581" d="M113.422,113.646h-8.427a.795.795,0,0,1,0-1.59h7.393l-2.305-8.506a.781.781,0,1,1,1.51-.4l2.623,9.54a.811.811,0,0,1-.159.715A.9.9,0,0,1,113.422,113.646Z" transform="translate(-104.2 -102.581)" fill="#434241"/>
  </g>
  <g id="Group_965" data-name="Group 965" transform="translate(72.583 6.042)">
    <path id="Path_582" data-name="Path 582" d="M165.995,120.5a.751.751,0,0,1-.795-.795V58.495a.795.795,0,1,1,1.59,0v61.214A.8.8,0,0,1,165.995,120.5Z" transform="translate(-165.2 -57.7)" fill="#434241"/>
  </g>
  <g id="Group_966" data-name="Group 966" transform="translate(86.097 6.042)">
    <path id="Path_583" data-name="Path 583" d="M182.995,120.5a.751.751,0,0,1-.795-.795V58.495a.795.795,0,1,1,1.59,0v61.214A.855.855,0,0,1,182.995,120.5Z" transform="translate(-182.2 -57.7)" fill="#434241"/>
  </g>
  <g id="Group_967" data-name="Group 967" transform="translate(79.419 10.732)">
    <path id="Path_584" data-name="Path 584" d="M174.595,116.944a.751.751,0,0,1-.795-.795V64.395a.795.795,0,1,1,1.59,0v51.754A.751.751,0,0,1,174.595,116.944Z" transform="translate(-173.8 -63.6)" fill="#434241"/>
  </g>
  <g id="Group_968" data-name="Group 968" transform="translate(99.692 6.042)">
    <path id="Path_585" data-name="Path 585" d="M200.095,120.5a.751.751,0,0,1-.795-.795V58.495a.795.795,0,1,1,1.59,0v61.214A.8.8,0,0,1,200.095,120.5Z" transform="translate(-199.3 -57.7)" fill="#434241"/>
  </g>
  <g id="Group_969" data-name="Group 969" transform="translate(93.093 10.732)">
    <path id="Path_586" data-name="Path 586" d="M191.795,116.944a.751.751,0,0,1-.795-.795V64.395a.795.795,0,1,1,1.59,0v51.754A.8.8,0,0,1,191.795,116.944Z" transform="translate(-191 -63.6)" fill="#434241"/>
  </g>
  <g id="Group_970" data-name="Group 970" transform="translate(99.93 6.042)">
    <path id="Path_587" data-name="Path 587" d="M200.4,120.5a.751.751,0,0,1-.795-.795V58.495a.795.795,0,1,1,1.59,0v61.214A.855.855,0,0,1,200.4,120.5Z" transform="translate(-199.6 -57.7)" fill="#434241"/>
  </g>
  <g id="Group_971" data-name="Group 971" transform="translate(113.206 6.042)">
    <path id="Path_588" data-name="Path 588" d="M217.1,120.5a.751.751,0,0,1-.795-.795V58.495a.795.795,0,1,1,1.59,0v61.214A.855.855,0,0,1,217.1,120.5Z" transform="translate(-216.3 -57.7)" fill="#434241"/>
  </g>
  <g id="Group_972" data-name="Group 972" transform="translate(106.529 10.732)">
    <path id="Path_589" data-name="Path 589" d="M208.695,116.944a.751.751,0,0,1-.795-.795V64.395a.795.795,0,1,1,1.59,0v51.754A.751.751,0,0,1,208.695,116.944Z" transform="translate(-207.9 -63.6)" fill="#434241"/>
  </g>
  <g id="Group_973" data-name="Group 973" transform="translate(126.642 6.042)">
    <path id="Path_590" data-name="Path 590" d="M233.995,120.5a.751.751,0,0,1-.795-.795V58.495a.795.795,0,1,1,1.59,0v61.214A.8.8,0,0,1,233.995,120.5Z" transform="translate(-233.2 -57.7)" fill="#434241"/>
  </g>
  <g id="Group_974" data-name="Group 974" transform="translate(120.043 10.732)">
    <path id="Path_591" data-name="Path 591" d="M225.695,116.944a.751.751,0,0,1-.795-.795V64.395a.795.795,0,1,1,1.59,0v51.754A.8.8,0,0,1,225.695,116.944Z" transform="translate(-224.9 -63.6)" fill="#434241"/>
  </g>
  <g id="Group_975" data-name="Group 975" transform="translate(140.157 6.042)">
    <path id="Path_592" data-name="Path 592" d="M250.995,120.5a.751.751,0,0,1-.795-.795V58.495a.795.795,0,1,1,1.59,0v61.214A.855.855,0,0,1,250.995,120.5Z" transform="translate(-250.2 -57.7)" fill="#434241"/>
  </g>
  <g id="Group_976" data-name="Group 976" transform="translate(133.479 10.732)">
    <path id="Path_593" data-name="Path 593" d="M242.595,116.944a.751.751,0,0,1-.795-.795V64.395a.795.795,0,1,1,1.59,0v51.754A.751.751,0,0,1,242.595,116.944Z" transform="translate(-241.8 -63.6)" fill="#434241"/>
  </g>
  <g id="Group_977" data-name="Group 977" transform="translate(153.751 6.042)">
    <path id="Path_594" data-name="Path 594" d="M268.095,120.5a.751.751,0,0,1-.795-.795V58.495a.795.795,0,1,1,1.59,0v61.214A.8.8,0,0,1,268.095,120.5Z" transform="translate(-267.3 -57.7)" fill="#434241"/>
  </g>
  <g id="Group_978" data-name="Group 978" transform="translate(147.153 10.732)">
    <path id="Path_595" data-name="Path 595" d="M259.795,116.944a.751.751,0,0,1-.795-.795V64.395a.795.795,0,1,1,1.59,0v51.754A.8.8,0,0,1,259.795,116.944Z" transform="translate(-259 -63.6)" fill="#434241"/>
  </g>
  <g id="Group_979" data-name="Group 979" transform="translate(153.989 6.042)">
    <path id="Path_596" data-name="Path 596" d="M268.395,120.5a.751.751,0,0,1-.795-.795V58.495a.795.795,0,1,1,1.59,0v61.214A.855.855,0,0,1,268.395,120.5Z" transform="translate(-267.6 -57.7)" fill="#434241"/>
  </g>
</svg>
