<?xml version="1.0" encoding="utf-8"?>
<!-- Generator: Adobe Illustrator 21.0.0, SVG Export Plug-In . SVG Version: 6.00 Build 0)  -->
<svg version="1.1" id="Layer_1" xmlns="http://www.w3.org/2000/svg" xmlns:xlink="http://www.w3.org/1999/xlink" x="0px" y="0px"
	 viewBox="0 0 45.6 75.2" style="enable-background:new 0 0 45.6 75.2;" xml:space="preserve">
<style type="text/css">
	.st0{fill:#6A955B;}
</style>
<g>
	<polygon class="st0" points="19.3,50.9 19.7,50.9 19.7,47 13.2,47 13.2,40.5 8.9,40.5 8.9,51.4 19.3,51.4 	"/>
	<rect x="18.2" y="63.8" class="st0" width="9.3" height="4.6"/>
	<polygon class="st0" points="13.4,28 19.9,28 19.9,23.7 9,23.7 9,34.6 13.4,34.6 	"/>
	<polygon class="st0" points="32.2,47.1 25.7,47.1 25.7,51.4 36.1,51.4 36.1,50.9 36.5,50.9 36.5,40.6 32.2,40.6 	"/>
	<path class="st0" d="M35.8,0h-26C4.4,0,0,4.4,0,9.8v55.6c0,5.4,4.4,9.8,9.8,9.8h26c5.4,0,9.8-4.4,9.8-9.8V9.8
		C45.6,4.4,41.2,0,35.8,0z M35.8,70.9h-26c-3,0-5.5-2.5-5.5-5.5V9.8c0-3,2.5-5.5,5.5-5.5h26c3,0,5.5,2.5,5.5,5.5v55.6
		C41.3,68.4,38.8,70.9,35.8,70.9z"/>
	<polygon class="st0" points="25.8,28.1 32.4,28.1 32.4,34.7 36.7,34.7 36.7,23.8 25.8,23.8 	"/>
</g>
</svg>
