<?xml version="1.0" encoding="UTF-8" standalone="no"?>
<!DOCTYPE svg PUBLIC "-//W3C//DTD SVG 1.1//EN" "http://www.w3.org/Graphics/SVG/1.1/DTD/svg11.dtd">
<svg width="100%" height="100%" viewBox="0 0 20 17" version="1.1" xmlns="http://www.w3.org/2000/svg" xmlns:xlink="http://www.w3.org/1999/xlink" xml:space="preserve" xmlns:serif="http://www.serif.com/" style="fill-rule:evenodd;clip-rule:evenodd;stroke-linejoin:round;stroke-miterlimit:2;">
    <g transform="matrix(1,0,0,1,-543.106,-183.674)">
        <g transform="matrix(0.803237,0,0,1.12663,-1.45053,-0.548443)">
            <g id="Group_3023" transform="matrix(0.875639,0,0,0.624289,659.739,153.44)">
                <g id="Path_303" transform="matrix(1,0,0,1,0,-6.602)">
                    <path d="M42.787,27.16L22.516,27.16C21.575,27.161 20.801,27.935 20.8,28.876L20.8,45.022C20.801,45.236 20.841,45.448 20.92,45.647L29.12,37.447C29.787,36.782 30.883,36.782 31.55,37.447L33.595,39.528L38.4,34.87C39.068,34.211 40.159,34.214 40.822,34.878L44.503,38.278L44.503,28.878C44.503,27.936 43.729,27.161 42.787,27.16ZM34.027,36.093C32.802,36.093 31.794,35.085 31.794,33.86C31.794,32.635 32.802,31.627 34.027,31.627C35.252,31.627 36.26,32.635 36.26,33.86C36.258,35.084 35.251,36.091 34.027,36.093Z" style="fill-rule:nonzero;"/>
                </g>
                <g id="Path_304" transform="matrix(1,0,0,1,-18.481,-15.33)">
                    <path d="M52.508,41.73C52.037,41.73 51.65,42.117 51.65,42.588C51.65,43.059 52.037,43.446 52.508,43.446C52.979,43.446 53.366,43.059 53.366,42.588C53.365,42.118 52.978,41.731 52.508,41.73Z" style="fill-rule:nonzero;"/>
                </g>
                <g id="Path_305" transform="matrix(1,0,0,1,-20.548,-19.439)">
                    <path d="M61.278,59.579L63.331,59.579C63.364,59.581 63.396,59.582 63.429,59.582C64.317,59.582 65.055,58.867 65.083,57.979L65.083,52.763L60.416,48.706C60.349,48.632 60.254,48.589 60.154,48.589C60.063,48.589 59.977,48.624 59.911,48.686L55.1,53.352L61.074,59.442L61.278,59.579Z" style="fill-rule:nonzero;"/>
                </g>
                <g id="Path_306" transform="matrix(1,0,0,1,-1.629,-23.28)">
                    <path d="M31.719,55.1L23.519,63.3C23.718,63.379 23.93,63.42 24.144,63.42L40.367,63.42L32.2,55.1C32.067,54.971 31.852,54.971 31.719,55.1Z" style="fill-rule:nonzero;"/>
                </g>
                <g id="Path_307" transform="matrix(1,0,0,1,-9.345,0)">
                    <path d="M56.756,17.872L37.639,16.148C37.595,16.148 37.551,16.14 37.507,16.14C37.17,16.14 36.585,16.304 36.457,17.415L36.401,18.485L54.684,19.692L54.684,35.329L54.784,35.313L54.8,35.313L55.225,35.329L55.225,35.253C55.769,35.091 56.173,34.627 56.259,34.066L57.959,19.392C57.995,19.032 57.887,18.673 57.659,18.392C57.437,18.109 57.113,17.922 56.756,17.872Z" style="fill-rule:nonzero;"/>
                </g>
            </g>
        </g>
    </g>
</svg>
