<svg xmlns="http://www.w3.org/2000/svg" width="998.361" height="170.999" viewBox="0 0 998.361 170.999">
  <g id="RGMTLogo" transform="translate(-150.9 332.089)">
    <path id="Path_6" data-name="Path 6" d="M282.2-330.7a17.83,17.83,0,0,0-6.1,3.8c-4.7,4.6-5.3,9-4.9,35.4.3,26.6.7,28.1,7,32.7,2.8,2,4.7,2.3,13.7,2.6a105.1,105.1,0,0,0,14.7-.3l4.4-.6V-270H300.1c-13.7,0-14.1-.3-14.1-10.6V-288h24v-13H286v-6.9c0-4.4.5-7.2,1.3-7.9.7-.6,6.2-1.3,12.3-1.4l10.9-.3v-13l-4-.7C300.6-332.2,286-332,282.2-330.7Z"/>
    <path id="Path_7" data-name="Path 7" d="M351.2-331.1c-2.4.4-4.8,1.4-5.3,2.2s-.9,17.3-.9,36.6V-257l2.3.5a26.672,26.672,0,0,0,7.3.3l4.9-.3.3-13.8.3-13.7h7.5l5.3,11.7c7.7,17.2,6.9,16.3,15.1,16.3,3.8,0,7.1-.4,7.5-.9.3-.5-2.4-7.1-6-14.7-3.6-7.5-6.5-14-6.5-14.4,0-.3,2-2.7,4.4-5.2,5.6-5.9,7.5-13,5.8-22.2-1.5-7.8-4.9-12.8-10.9-15.7-4-2-6.5-2.4-15.8-2.6A117.432,117.432,0,0,0,351.2-331.1Zm24,15.4c4,2.6,4.7,10.7,1.4,15.3-1.1,1.5-3,1.9-9,2.2l-7.6.4v-19.1l2.8-.4C366.4-317.9,373-317,375.2-315.7Z"/>
    <path id="Path_8" data-name="Path 8" d="M421.1-330.8c-5.2,2.8-6.2,5.7-13.3,39.4-3.8,18-6.6,33.4-6.4,34.1.7,1.7,13.2,1.8,14.2.1a60.345,60.345,0,0,0,2.4-9.3l1.6-8,9-.3,9.1-.3,1.3,7.3c2.1,12,1.9,11.8,9.5,11.8,4.9,0,6.7-.4,7.1-1.5.5-1.3-6.4-36.4-11.7-59.6-2.7-11.5-5.3-14.2-14.2-14.6C425.9-332,422.6-331.6,421.1-330.8Zm11.3,27.9c1.4,7.5,2.6,13.9,2.6,14.2,0,1-11.8.9-12.3-.1-.5-.6,3.8-25,4.9-28.1C428.6-319.9,429.9-316.1,432.4-302.9Z"/>
    <path id="Path_9" data-name="Path 9" d="M551.2-330a12.967,12.967,0,0,0-4.6,5.3c-2,4.7-14.8,66.5-14.1,67.7.9,1.5,13.2,1.3,14.2-.3.4-.6,1.5-4.8,2.3-9.2l1.5-8,9.1-.3,9.1-.3,1.9,9.3,1.9,9.3,7.3.3c7.1.3,7.2.2,7.2-2.2,0-4.5-12.9-64-14.6-67.3C569.2-331.9,558-334.1,551.2-330Zm12.2,26.5c1.4,7.2,2.6,13.6,2.6,14.2,0,1.4-11.5,1.9-12.3.5-.4-.6,3.1-19.9,4.8-27.1C559.6-320.1,560.8-316.9,563.4-303.5Z"/>
    <path id="Path_10" data-name="Path 10" d="M675.3-330.5a9.551,9.551,0,0,0-4.8,4.7c-2.1,4.5-15.5,68.1-14.6,69.1.5.4,3.9.7,7.7.5l6.9-.3,1.1-5.5c.7-3,1.5-7.2,1.8-9.3l.7-3.7H683c10,0,9.1-.8,11.1,10,.6,3.6,1.6,7.1,2.2,7.7,1.1,1.5,13.3,1.8,14.2.3.7-1.1-13-66.1-14.5-69.1C693.1-331.5,682.6-333.7,675.3-330.5ZM687-303c1.4,7.7,2.4,14.2,2.2,14.5-.3.3-3.2.5-6.4.5-4.1,0-5.8-.4-5.8-1.3,0-2.3,4.9-26.7,5.5-27.8C683.7-318.9,684.2-317.4,687-303Z"/>
    <path id="Path_11" data-name="Path 11" d="M757.8-330.8c-4.6,1.2-11.3,6.9-13.7,11.7-3.2,6.3-4.4,15.1-3.9,29.6.4,13,.6,13.8,3.9,20.2,2.9,5.7,4.3,7.3,8.9,10.1l5.5,3.4,12.7-.5c8.4-.2,13.2-.8,14.3-1.7,1.3-1.1,1.5-3.9,1.3-19.4l-.3-18.1h-14l-.3,12.7-.3,12.8h-4.2c-5,0-8-1.9-10.4-6.3-1.4-2.6-1.8-5.9-1.8-16.7,0-22.5,1.6-24.4,19.9-23.9l11.1.4v-13l-5.5-1.2C774.3-332.1,762.8-332.1,757.8-330.8Z"/>
    <path id="Path_12" data-name="Path 12" d="M814-330.7c-1.9.6-5.6,3.2-8.2,5.8-5.9,5.9-7.7,11.6-8.5,26.4-1.1,20.6,2.9,33.2,12.1,39,4.6,2.8,5.6,3,14.1,3s9.5-.2,14.1-3c6.3-4,10-10.9,11.5-22,1.4-10,.5-26.4-1.8-33.6-2.2-6.8-9-13.9-14.9-15.7A38.167,38.167,0,0,0,814-330.7Zm16.2,16.6,3.3,2.9.3,14.3c.4,16.7-.1,20.3-3.3,23.5-3.4,3.4-10.6,3.4-14,0-3.2-3.2-3.7-6.8-3.3-23.5l.3-14.3,3.3-2.9a9.6,9.6,0,0,1,6.7-2.9A9.6,9.6,0,0,1,830.2-314.1Z"/>
    <path id="Path_13" data-name="Path 13" d="M995-331.4c-1.4.3-3.5.7-4.7.9l-2.3.5v36c0,27.6.3,36.1,1.3,36.7.6.4,7.3.9,14.7,1.1,13.2.4,13.6.3,19-2.5a25.353,25.353,0,0,0,13-17.9c.7-3.3,1-11.5.8-20.2-.4-16.1-1.9-21.5-7.6-27.5-5.2-5.6-9.7-7.1-21.2-7.3C1002.2-331.7,996.4-331.6,995-331.4Zm22,16.3c3.8,2.7,4.9,7.3,4.9,21.4.1,18.6-2.2,22.7-12.9,23.5l-6,.4v-23.5c0-21.6.1-23.6,1.8-24C1007.7-318.2,1014.4-316.9,1017-315.1Z"/>
    <path id="Path_14" data-name="Path 14" d="M1059.8-331a16.1,16.1,0,0,0-10.2,9c-1.3,3.3-1.6,8.3-1.6,28.3,0,23.2.1,24.5,2.3,28.7,3.8,7.5,6,8.5,20,8.8,7.1.2,13.4-.1,15-.7,2.7-1,2.8-1.3,2.5-6.8l-.3-5.8-11-.5c-6-.3-11.6-.9-12.2-1.3-.9-.5-1.3-3.5-1.3-8.8V-288h24v-13h-24v-6.4c0-9.9-.4-9.6,11.9-9.6,5.8,0,11.2-.4,11.9-.9.9-.5,1.2-2.6,1-6.7l-.3-5.9-4-.7C1078.1-332.1,1063.2-332,1059.8-331Z"/>
    <path id="Path_15" data-name="Path 15" d="M1105.2-331.1c-2.3.4-4.7,1.2-5.2,1.7-.7.7-.9,14.1-.8,37l.3,35.9h14l.3-13.8.3-13.7h7l6.7,13.7,6.7,13.8,6.9.3c3.8.2,7.3-.1,7.8-.6s-2.1-7-6-15.4l-7-14.5,3.5-2.8c5.1-4,7.5-10.2,7.5-19.1,0-12.1-5.1-19.5-15.7-22.3C1127.1-332.1,1112.1-332.2,1105.2-331.1Zm23.7,16c3.4,2.4,4.6,6.5,3.2,11.1s-4.2,6-12.1,6h-6v-18.9l2.8-.4C1121-317.9,1126.3-317,1128.9-315.1Z"/>
    <path id="Path_16" data-name="Path 16" d="M151.2-324.3l.3,6.8,7.7.3,7.8.3.2,30.2.3,30.2h14l.3-30.3L182-317h16v-14H150.9Z"/>
    <path id="Path_17" data-name="Path 17" d="M207.2-293.8l.3,37.3,5.8.3c3.5.2,6.4-.2,7.3-.9,1.1-.9,1.4-4.4,1.4-16.1v-14.9l10.8.3,10.7.3L244-272l.5,15.5,6.1.3c4.3.2,6.4-.1,7.3-1.1.8-1.1,1.1-11,.9-37.3l-.3-35.9-7.2-.3-7.2-.3-.3,14.3-.3,14.3-10.7.3-10.7.3-.3-14.3-.3-14.3-7.3-.3-7.2-.3Z"/>
    <path id="Path_18" data-name="Path 18" d="M465.1-329.6c-.8.9-1.1,11.6-.9,37.2l.3,35.9h14L479-279l.5-22.5,4.7,9.8,4.8,9.8,5.2-.3,5.3-.3,4.7-9.5,4.7-9.5v21.6c.1,17.4.4,21.9,1.5,22.8.9.7,3.8,1.1,7.3.9l5.8-.3v-74H509.7L502.3-315c-4,8.5-7.6,15.6-8.1,15.8-.4.1-3.6-6-7.1-13.5-8.9-19.4-8-18.3-15-18.3C468.4-331,465.8-330.5,465.1-329.6Z"/>
    <path id="Path_19" data-name="Path 19" d="M596-329.1c-.6,1.3-1,14.6-1,36.4,0,28.5.2,34.7,1.4,35.6.8.7,3.7,1.1,6.8.9l5.3-.3.5-21.9c.4-16.6.8-21.6,1.6-20.5.7.8,5.7,10.5,11.2,21.5,5.6,11.1,10.8,20.4,11.7,20.8,2.8,1,11,.7,12.3-.6.9-.9,1.2-10.6,1.2-37.5V-331H634v22.5c0,12.4-.3,22.5-.8,22.5-.4,0-5.8-10.1-12-22.5L610-331h-6.5C598.2-331,596.9-330.7,596-329.1Z"/>
    <path id="Path_20" data-name="Path 20" d="M860.4-329.6c-.3.8-.4,13.5-.2,28.3.5,29.7,1,32.9,7,39,4.9,5.1,10.2,6.6,20.7,6.1,11.5-.5,16-3.1,19.9-11.6l2.7-5.7.3-28.8.3-28.8-7.3.3-7.3.3-.5,27.8-.5,27.9-2.8,2.4c-3.5,3-10.4,3.3-13.6.6-3.4-2.7-4.1-8-4.1-34.5V-331h-7C862.8-331,860.8-330.6,860.4-329.6Z"/>
    <path id="Path_21" data-name="Path 21" d="M924.2-329.8c-1.9,1.9-1.7,71.1.2,72.7.8.7,3.7,1.1,6.8.9l5.3-.3.5-22,.5-22,10.9,21c5.9,11.5,11.5,21.6,12.4,22.2,1.9,1.6,9.6,1.7,12.3.3,1.8-1,1.9-2.5,1.9-37.6v-36.5l-6.7.3-6.8.3-.5,22.2-.5,22.3-11.3-22.5L937.9-331h-6.2C928.1-331,924.9-330.5,924.2-329.8Z"/>
    <path id="Path_22" data-name="Path 22" d="M335-236.3a5.43,5.43,0,0,0-2.2,1.7c-.4.6-.8,17.2-.8,36.9v35.8l5.8-.3,5.7-.3.5-24.4.5-24.4,4.6,10.4,4.5,10.4h12.9l3-6c1.7-3.3,4-8,5-10.5l2-4.5.3,24.8.2,24.8,5.8-.3,5.7-.3.3-35.5c.2-35.2.2-35.5-1.9-37.3a10.465,10.465,0,0,0-5.4-1.7,9.206,9.206,0,0,0-5.2,1.7c-1.1,1-5.1,8.9-8.8,17.6-3.8,8.7-7.1,15.4-7.5,15s-3.8-7.8-7.4-16.3c-3.7-8.5-7.4-16.1-8.3-16.8C342.6-237,337.7-237.3,335-236.3Z"/>
    <path id="Path_23" data-name="Path 23" d="M411.4-235.6c-3.9,1.7-7.1,5.8-8.5,10.8-.6,2.5-.9,13.1-.7,28.1.3,22.2.5,24.5,2.3,27.7,3.3,5.5,7.5,7.4,18,7.8a101.685,101.685,0,0,0,13.5-.5l4.5-.9v-9.9l-11.5-.3c-14.7-.3-15-.6-15-13.3v-8.8l12.8-.3,12.7-.3v-10l-12.7-.3-12.8-.3v-7.3c0-11,.7-11.5,15-11.8l11.5-.3v-5c0-4.4-.3-5-2.5-5.6C433.4-237.4,414.7-237,411.4-235.6Z"/>
    <path id="Path_24" data-name="Path 24" d="M456-236.2l-2.5.8-.3,35.9c-.1,19.7.2,36.3.6,36.7,1.6,1.6,21.4,2.2,26.9.9a23.191,23.191,0,0,0,16-12.9c2.6-5.4,2.8-6.6,3.1-21.2.3-9.3-.1-17.5-.7-20.6-1.7-7.3-6.1-13.7-11.8-17.1-4.5-2.6-5.6-2.8-16.8-3C463.9-236.8,457.4-236.6,456-236.2Zm25,12.7c5.6,2.9,6.5,6.1,6.5,24.5,0,14.4-.2,16.9-1.9,19.6-2.9,4.8-6.5,6.4-14,6.4H465v-51.9l2.3-.4C470.8-226.1,477.8-225.2,481-223.5Z"/>
    <path id="Path_25" data-name="Path 25" d="M512.7-236.3c-.4.3-.7,17.2-.7,37.5V-162h12v-36.9c0-41,.5-38.1-6.9-38.1C515-237,513-236.7,512.7-236.3Z"/>
    <path id="Path_26" data-name="Path 26" d="M551-235.7c-5.5,1.8-11.3,8.3-13.5,15.2-1.6,4.9-1.9,8.8-1.9,22,.1,13.9.4,16.7,2.2,21.6a26.773,26.773,0,0,0,11.6,13.7c3.4,1.8,18.6,2.4,23.9.9,2.7-.7,2.8-1,2.5-5.9l-.3-5.2-9.6.3c-9,.2-9.8.1-12.6-2.3-4.2-3.5-5.3-8.4-5.3-23.7,0-15.6.9-19.8,5.1-23.3,2.8-2.4,3.8-2.6,13-2.6h10l-.3-5.2c-.3-5-.5-5.3-3.3-5.9C567.7-237.2,554.8-236.9,551-235.7Z"/>
    <path id="Path_27" data-name="Path 27" d="M601.6-234.9a17.8,17.8,0,0,0-3.6,3.8c-.8,1.6-16,66.4-16,68.4,0,.4,2.8.7,6.2.5l6.2-.3,2.1-10,2.1-10,10.1-.3,10.1-.3,1.7,7.8c2.9,13.6,2.3,12.8,9.1,12.8,5.3,0,5.9-.2,5.6-2-1-6.9-14.7-64.5-15.8-66.7-2.1-4-5.3-5.8-10.5-5.8C605.7-237,603.4-236.3,601.6-234.9Zm11.9,25.8,3.2,15.1h-7.9c-7.6,0-7.8-.1-7.3-2.3.3-1.2,1.6-7.6,3-14.2,3.3-15.4,3.5-15.9,4.7-14.7C609.8-224.6,611.7-217.4,613.5-209.1Z"/>
    <path id="Path_28" data-name="Path 28" d="M645.2-236.2c-1,.7-1.2,7.3-1,32.3.3,29.5.4,31.6,2.3,34.9,3.2,5.3,7.5,7.3,16.9,7.7a78.9,78.9,0,0,0,12.6-.4l4.5-.9v-9.9l-10.7-.3c-8.3-.2-10.9-.6-12-1.9-1-1.2-1.4-8.5-1.8-31.7l-.5-30.1-4.5-.3C648.5-236.9,645.9-236.6,645.2-236.2Z"/>
    <path id="Path_29" data-name="Path 29" d="M708.2-236.1c-.9.5-1.2,2.5-1,5.7l.3,4.9,8.2.3,8.3.3.2,31.2.3,31.2h12l.3-31.2.2-31.2,8.3-.3,8.2-.3.3-4.9c.2-3.2-.1-5.2-1-5.7-.7-.5-10.7-.9-22.3-.9C719-237,708.9-236.6,708.2-236.1Z"/>
    <path id="Path_30" data-name="Path 30" d="M766.5-236.2l-3,.7-.3,36.8L763-162h12v-29.1l4.6.3,4.7.3,6.6,14.2,6.6,14.2,6.3.1c3.9,0,6.2-.4,6.2-1.1,0-.6-2.9-7.3-6.5-14.9s-6.5-14.2-6.5-14.6c0-.5,1.5-1.9,3.4-3.1,5.2-3.4,7.1-8.3,7.1-18.9,0-8.2-.3-9.4-2.8-13.2-4.5-6.8-9.1-8.6-23.2-8.8C774.9-236.8,768.2-236.6,766.5-236.2Zm26.6,14.1c2.3,2.4,2.9,3.8,2.9,7.5,0,9.5-3.5,12.6-14.5,12.6H775v-23h7.6C789.6-225,790.4-224.8,793.1-222.1Z"/>
    <path id="Path_31" data-name="Path 31" d="M821.2-236.2c-1.1.7-1.3,6.6-1,29.3l.3,28.4,2.8,5.8c3.7,7.5,9,10.8,18.6,11.5,16.2,1.1,24.2-6,26.1-23.1,1.5-12.3,1.3-50-.2-51.5-1.6-1.6-9-1.6-10.6,0-.9.9-1.2,8.4-1.2,27.5,0,28.3-.5,31.9-5.1,34.3-3.5,1.9-11.6,1.5-14-.6-4.2-3.8-4.4-5.1-4.9-33.9l-.5-28-4.5-.3C824.5-236.9,821.9-236.6,821.2-236.2Z"/>
    <path id="Path_32" data-name="Path 32" d="M890.9-236c-7.6,2.3-11.9,8.5-11.9,17.4,0,9.8,2.3,13.2,15.5,22.4,12.3,8.5,13.5,9.9,13.5,14.8,0,3.4-.5,4.7-2.7,6.4-2.6,2.1-3.6,2.2-13.5,1.7l-10.8-.5v5.3c0,6.3.2,6.4,11.6,7.2,10.9.8,17.4-.9,22.4-5.6,7.7-7.4,8.1-21.9.7-30-1.2-1.3-6-4.8-10.7-7.9a109.085,109.085,0,0,1-11.2-8c-3.4-3.1-3.7-7.3-.7-10.3,1.9-1.9,3.1-2,13.7-1.8l11.7.3v-10.9l-4-.7C909.2-237.1,894.2-237,890.9-236Z"/>
    <path id="Path_33" data-name="Path 33" d="M928.1-235.6c-.7.8-1.1,3.4-.9,5.8l.3,4.3,8.5.5,8.5.5.3,31.3.2,31.3,5.8-.3,5.7-.3.3-31.3L957-225h17v-5.4c0-4-.4-5.5-1.6-6-.9-.3-10.9-.6-22.4-.6C933.3-237,929-236.7,928.1-235.6Z"/>
  </g>
</svg>
