<svg xmlns="http://www.w3.org/2000/svg" viewBox="0 0 220 38.564">
  <defs>
    <style>
      .cls-1 {
        fill: #ff422e;
      }

      .cls-2 {
        fill: #424244;
      }
    </style>
  </defs>
  <g id="Symbol_5_5" data-name="Symbol 5 – 5" transform="translate(-42 -42)">
    <g id="Symbol_4_1" data-name="Symbol 4 – 1">
      <path id="Path_62" data-name="Path 62" class="cls-1" d="M-2.564-9.079-.331-23.114a.057.057,0,0,0-.015,0,18.508,18.508,0,0,0-3.127-.267,18.5,18.5,0,0,0-3.128.267h0L-4.392-9.079a21.608,21.608,0,0,1,.176,3.431V11.766h1.472V-5.648a21.246,21.246,0,0,1,.179-3.431" transform="translate(63.776 65.384)"/>
      <path id="Path_63" data-name="Path 63" class="cls-1" d="M-6.353-7.217l-.327-.8-4.335-10.572h0l-.017.009-.144.058A18.327,18.327,0,0,0-16.364-15.3c.029.037,7.252,8.326,7.252,8.326,2.1,2.18,1.981,5.686,1.981,5.686V15.275h1.472V-1.412c0-4.432-.695-5.805-.695-5.805" transform="translate(64.567 61.875)"/>
      <path id="Path_64" data-name="Path 64" class="cls-1" d="M-8.006-4.527A3.165,3.165,0,0,0-8.6-5.089l-8.826-6.322-.349-.25a.063.063,0,0,0-.007.01c-.117.155-.231.313-.343.473a18.259,18.259,0,0,0-2.5,5.09c.159.049,11.337,3.545,11.382,3.561.124.048,1.116.343,1.116,2.06v16.63H-6.65V-.355A6.226,6.226,0,0,0-8.006-4.527" transform="translate(63.43 60.985)"/>
      <path id="Path_65" data-name="Path 65" class="cls-1" d="M-7.013-.292C-7.34-.313-17.3-.727-17.986-.753v0c-.05.553-.076,1.113-.076,1.678,0,.139,0,.275.006.409a18.223,18.223,0,0,0,.566,4.142.024.024,0,0,0,0,.01c.019-.007,8.641-2.708,9.051-2.84a4.636,4.636,0,0,1,.748-.2.686.686,0,0,1,.528.112.951.951,0,0,1,.284.743V17.776h1.471V1.679S-5.332-.187-7.013-.292" transform="translate(60.062 59.373)"/>
      <path id="Path_66" data-name="Path 66" class="cls-1" d="M-2.191-7.368,5.06-15.694A18.291,18.291,0,0,0-.123-18.911c-.046-.02-.1-.04-.144-.059a.049.049,0,0,0-.018-.007s0,0,0,0L-4.947-7.607S-5.642-6.234-5.642-1.8V14.885H-4.17V-1.682s-.122-3.506,1.979-5.686" transform="translate(67.341 62.264)"/>
      <path id="Path_67" data-name="Path 67" class="cls-1" d="M-1.642-5.8C-1.6-5.813,9.583-9.308,9.74-9.358a18.234,18.234,0,0,0-2.5-5.09c-.112-.161-.225-.318-.342-.473l-.008-.01L-2.279-8.361a3.212,3.212,0,0,0-.594.562A6.227,6.227,0,0,0-4.228-3.627V12.892h1.471V-3.738c0-1.717.992-2.012,1.116-2.06" transform="translate(68.054 64.257)"/>
      <path id="Path_68" data-name="Path 68" class="cls-1" d="M-7.981,0s0,0,0,0c-.683.025-10.644.439-10.972.46-1.681.105-1.6,1.972-1.6,1.972v16.1h1.467V4.053A.957.957,0,0,1-18.8,3.31a.692.692,0,0,1,.529-.114,4.275,4.275,0,0,1,.749.2c.409.135,8.927,2.821,9.046,2.857,0-.009,0-.017.006-.026a18.081,18.081,0,0,0,.564-4.141c0-.136.007-.272.007-.411C-7.9,1.113-7.932.552-7.981,0" transform="translate(86.51 58.624)"/>
    </g>
    <g id="Group_46" data-name="Group 46" transform="translate(85.899 49.642)">
      <path id="Path_70" data-name="Path 70" class="cls-2" d="M-3.815-2.763H-9.827V-7.116H7.482v4.353H1.471V17.1H-3.815Z" transform="translate(9.827 7.116)"/>
    </g>
    <path id="Path_71" data-name="Path 71" class="cls-2" d="M-9.583-4.1V3.707c0,1.105.414,1.59,1.348,1.59h.552V8.889a4.749,4.749,0,0,1-2.591.656A3.616,3.616,0,0,1-13.8,7.439h-.138a5.827,5.827,0,0,1-4.975,2.176c-3.8,0-5.77-2.591-5.77-5.389,0-4.491,4.042-6.565,10.192-6.254v-1.52c0-2.177-1.209-2.834-2.8-2.834A3.435,3.435,0,0,0-20.639-4.17l-3.7-2.73a8.076,8.076,0,0,1,7.014-3.662c4.975,0,7.739,1.728,7.739,6.461m-4.906,5.6c-3.42-.241-5.113.553-5.113,2.246a1.876,1.876,0,0,0,2.107,1.9A3.784,3.784,0,0,0-14.489,4.26Z" transform="translate(127.163 64.557)"/>
    <path id="Path_72" data-name="Path 72" class="cls-2" d="M-7.609-3.377a12.289,12.289,0,0,0-2.246-.173,7.639,7.639,0,0,0-4.561,1.554V11.238H-19.6V-8.282h4.077l1.071,2.867h.139A5.194,5.194,0,0,1-9.267-8.7a8.166,8.166,0,0,1,1.658.173Z" transform="translate(140.703 62.623)"/>
    <path id="Path_73" data-name="Path 73" class="cls-2" d="M0-6.469C0-12.48,2.522-16.661,8.982-16.661c6.737,0,8.845,4.008,8.845,10.054,0,6.012-2.556,10.192-9.018,10.192C2.107,3.585,0-.422,0-6.469M8.982-.491c2.661,0,3.489-1.935,3.489-5.908,0-4.042-1-6.184-3.7-6.184-2.383,0-3.42,1.934-3.42,5.908,0,4.042,1,6.185,3.628,6.185" transform="translate(133.579 70.656)"/>
    <path id="Path_74" data-name="Path 74" class="cls-2" d="M-10.635-4.561c0,4.526-2.384,8.43-9.467,8.43h-2v8.6h-5.286V-11.747H-19.1c4.906,0,8.465,1.831,8.465,7.186M-22.106-7.29V-.449h1.728c3.524,0,4.283-1.52,4.283-3.386,0-2.384-1.175-3.455-3.869-3.455Z" transform="translate(189.417 61.389)"/>
    <path id="Path_75" data-name="Path 75" class="cls-2" d="M0,0H5.217V12.61c0,2.142,1.037,3.248,2.8,3.248A3.578,3.578,0,0,0,11.4,13.509V0h5.217V19.52H12.2l-.726-1.8h-.138A6.129,6.129,0,0,1,6.185,19.9C2,19.9,0,17.724,0,13.094Z" transform="translate(179.922 54.341)"/>
    <path id="Path_76" data-name="Path 76" class="cls-2" d="M-13.442,0C-9.607,0-7.43,2.039-7.43,6.5V19.97h-5.217V7.428c0-2.281-1.174-3.04-2.522-3.04a3.641,3.641,0,0,0-3.248,2.246V19.97h-5.217V7.808c0-2.281-.967-3.42-2.764-3.42A3.483,3.483,0,0,0-29.4,6.7V19.97h-5.217V.449h4.285l.864,1.832h.138A6.483,6.483,0,0,1-24.187,0c2.971,0,4.18,1.244,4.871,2.626h.138A7.045,7.045,0,0,1-13.442,0" transform="translate(233.58 53.891)"/>
    <path id="Path_77" data-name="Path 77" class="cls-2" d="M-5.2-12.674a13.411,13.411,0,0,1-3-.311v6.91h-5.183V-32.3h3.835l1.105,1.658h.138a5.921,5.921,0,0,1,4.665-2c4.285,0,7.22,3.213,7.22,9.294C3.579-16.164-.5-12.674-5.2-12.674m-.622-4.215c2.522,0,4.077-1.45,4.077-6.011,0-3.87-1.624-5.528-3.662-5.528a3.414,3.414,0,0,0-2.868,1.486v9.467a5.587,5.587,0,0,0,2.453.587" transform="translate(241.954 86.639)"/>
    <path id="Path_78" data-name="Path 78" class="cls-2" d="M-.811-3.838c0-3.179,2.73-6.046,7.255-6.046,3.524,0,5.77,1.244,7.048,2.73L10.141-3.872A5.206,5.206,0,0,0,6.306-5.7c-1.175,0-1.934.622-1.934,1.52,0,2.937,9.19,1.9,9.19,8.43,0,2.591-2.038,6.081-7.705,6.081A10.824,10.824,0,0,1-2.09,7.391L1.02,3.8A7.115,7.115,0,0,0,6.133,6.216c1.624,0,2.245-.76,2.245-1.658,0-2.833-9.19-1.9-9.19-8.4" transform="translate(248.439 63.879)"/>
    <g id="Group_56" data-name="Group 56" transform="translate(148.846 49.642)">
      <path id="Path_80" data-name="Path 80" class="cls-2" d="M0,0H3.261V.617H2.026v3.72h-.76V.617H0ZM7.787.76,6.616,4.036h-.68L4.748.7H4.685L4.7,2.1V4.353H3.989V0H5.207L6.284,3.166,7.344,0H8.563V4.353H7.819V2.1L7.851.76Z"/>
    </g>
  </g>
</svg>
