<svg xmlns="http://www.w3.org/2000/svg" viewBox="0 0 63.66 35.284">
  <defs>
    <style>
      .cls-1 {
        fill: #424244;
      }
    </style>
  </defs>
  <g id="Symbol_6_5" data-name="Symbol 6 – 5" transform="translate(-882 -42)">
    <g id="Group_20" data-name="Group 20" transform="translate(882.001 42)">
      <path id="Path_36" data-name="Path 36" class="cls-1" d="M-1.054-.763H-3.385V-2.451H3.327V-.763H1v7.7h-2.05Z" transform="translate(3.385 2.451)"/>
    </g>
    <path id="Path_37" data-name="Path 37" class="cls-1" d="M-2.882-3.173a3.957,3.957,0,0,1-2.773.844c-2.383,0-3.6-1.339-3.6-3.952,0-2.452,1.367-3.912,3.55-3.912a2.829,2.829,0,0,1,3.04,3.067,9.211,9.211,0,0,1-.094,1.353H-7.275c.027,1.193.563,1.849,1.848,1.849a2.292,2.292,0,0,0,1.661-.684ZM-7.235-7.112H-4.57v-.2c0-.885-.375-1.353-1.192-1.353A1.456,1.456,0,0,0-7.235-7.112" transform="translate(897.921 53.867)"/>
    <g id="Group_23" data-name="Group 23" transform="translate(895.774 43.821)">
      <path id="Path_39" data-name="Path 39" class="cls-1" d="M-1.581-2.344h-.054L-2.733.04H-5.077l2.385-3.911L-4.943-7.528h2.251L-1.487-5.3h.054L-.55-7.528H1.821l-2.2,3.684L1.929.04H-.322Z" transform="translate(5.077 7.528)"/>
    </g>
    <path id="Path_40" data-name="Path 40" class="cls-1" d="M-3.712,0c1.487,0,2.331.79,2.331,2.518V7.742H-3.4V2.879C-3.4,2-3.86,1.7-4.382,1.7a1.412,1.412,0,0,0-1.26.871v5.17H-7.664V3.027c0-.884-.375-1.326-1.072-1.326A1.349,1.349,0,0,0-9.9,2.6V7.742h-2.023V.174h1.661l.335.71h.054a2.514,2.514,0,0,1,2-.884A1.839,1.839,0,0,1-5.99,1.018h.054A2.732,2.732,0,0,1-3.712,0" transform="translate(915.655 43.648)"/>
    <path id="Path_41" data-name="Path 41" class="cls-1" d="M0-1.786c0-2.33.978-3.952,3.483-3.952,2.611,0,3.429,1.554,3.429,3.9s-.992,3.952-3.5,3.952C.817,2.111,0,.558,0-1.786M3.483.531c1.031,0,1.352-.75,1.352-2.29,0-1.567-.388-2.4-1.433-2.4-.924,0-1.326.751-1.326,2.291,0,1.567.388,2.4,1.407,2.4" transform="translate(915.581 49.426)"/>
    <path id="Path_43" data-name="Path 43" class="cls-1" d="M258.387-39.124h2.05v9.391h-2.05Z" transform="translate(624.766 94.004)"/>
    <path id="Path_44" data-name="Path 44" class="cls-1" d="M-2.888-3.506H-4.911V-8.315c0-.777-.361-1.232-1.045-1.232a1.387,1.387,0,0,0-1.3.9v5.144H-9.277v-7.568H-7.7l.4.71h.054a2.7,2.7,0,0,1,2.036-.9c1.473,0,2.317.817,2.317,2.518Z" transform="translate(896.353 67.777)"/>
    <path id="Path_45" data-name="Path 45" class="cls-1" d="M-2.059,0h2.01V10.154H-1.631l-.322-.616h-.053a2.593,2.593,0,0,1-1.848.738c-1.594,0-2.759-1.045-2.759-3.51,0-3.189,1.714-4.219,3.308-4.219a3.864,3.864,0,0,1,1.246.161Zm.054,8.037V4.447a1.91,1.91,0,0,0-1.005-.268c-.83,0-1.554.362-1.554,2.412,0,1.472.536,2.089,1.313,2.089a1.469,1.469,0,0,0,1.246-.643" transform="translate(901.366 54.116)"/>
    <path id="Path_46" data-name="Path 46" class="cls-1" d="M0,0H2.023V4.889c0,.831.4,1.259,1.085,1.259a1.388,1.388,0,0,0,1.313-.911V0H6.443V7.568H4.729l-.282-.7H4.394a2.376,2.376,0,0,1-2,.844C.778,7.716,0,6.872,0,5.077Z" transform="translate(902.965 56.702)"/>
    <path id="Path_47" data-name="Path 47" class="cls-1" d="M-.224-1.06A2.528,2.528,0,0,1,2.589-3.4,3.449,3.449,0,0,1,5.323-2.346l-1.3,1.273a2.022,2.022,0,0,0-1.488-.71c-.455,0-.75.241-.75.589,0,1.138,3.563.736,3.563,3.268,0,1-.791,2.357-2.987,2.357A4.194,4.194,0,0,1-.719,3.294L.486,1.9a2.76,2.76,0,0,0,1.982.937c.63,0,.871-.294.871-.643,0-1.1-3.563-.737-3.563-3.255" transform="translate(911.111 59.972)"/>
    <path id="Path_48" data-name="Path 48" class="cls-1" d="M-.436-3.185v-3.6H-1.4v-1.26l.978-.4.7-1.781H1.559v1.9h1.89v1.541H1.559v3.657a.713.713,0,0,0,.791.79,1.787,1.787,0,0,0,1.032-.335L3.9-1.163a3.536,3.536,0,0,1-2.1.469C.5-.694-.436-1.35-.436-3.185" transform="translate(918.6 65.031)"/>
    <path id="Path_49" data-name="Path 49" class="cls-1" d="M-2.1-.932A4.761,4.761,0,0,0-2.973-1,2.958,2.958,0,0,0-4.74-.4v5.13H-6.75V-2.835h1.581l.415,1.112H-4.7A2.015,2.015,0,0,1-2.745-2.995a3.181,3.181,0,0,1,.643.067Z" transform="translate(930.158 59.536)"/>
    <path id="Path_50" data-name="Path 50" class="cls-1" d="M-.521,0A1.165,1.165,0,0,1,.671,1.205,1.151,1.151,0,0,1-.521,2.345a1.141,1.141,0,0,1-1.152-1.14A1.156,1.156,0,0,1-.521,0M-1.5,3.175H.525v7.568H-1.5Z" transform="translate(930.525 53.527)"/>
    <path id="Path_51" data-name="Path 51" class="cls-1" d="M-2.883-3.173a3.957,3.957,0,0,1-2.773.844c-2.384,0-3.6-1.339-3.6-3.952,0-2.452,1.367-3.912,3.55-3.912A2.829,2.829,0,0,1-2.668-7.125a9.209,9.209,0,0,1-.094,1.353H-7.276c.026,1.193.562,1.849,1.848,1.849a2.293,2.293,0,0,0,1.661-.684ZM-7.236-7.112H-4.57v-.2c0-.885-.375-1.353-1.193-1.353A1.457,1.457,0,0,0-7.236-7.112" transform="translate(941.598 66.747)"/>
    <path id="Path_52" data-name="Path 52" class="cls-1" d="M-.224-1.06A2.528,2.528,0,0,1,2.589-3.4,3.446,3.446,0,0,1,5.322-2.346l-1.3,1.273a2.022,2.022,0,0,0-1.488-.71c-.455,0-.75.241-.75.589,0,1.138,3.563.736,3.563,3.268,0,1-.791,2.357-2.987,2.357A4.194,4.194,0,0,1-.719,3.294L.486,1.9a2.76,2.76,0,0,0,1.982.937c.63,0,.871-.294.871-.643,0-1.1-3.563-.737-3.563-3.255" transform="translate(940.311 59.972)"/>
    <g id="Group_37" data-name="Group 37" transform="translate(883.22 67.76)">
      <path id="Path_54" data-name="Path 54" class="cls-1" d="M0-4.245v-9.39H4.983v.95H1.072v3.2H4.515v.951H1.072V-5.2h4.1v.951Z" transform="translate(0 13.635)"/>
    </g>
    <path id="Path_55" data-name="Path 55" class="cls-1" d="M-.206-.914A2.207,2.207,0,0,1,2.285-2.937a3.011,3.011,0,0,1,2.129.776l-.669.724a2.169,2.169,0,0,0-1.488-.589c-.99,0-1.432.5-1.432,1.085,0,1.634,3.683.978,3.683,3.456,0,1-.844,2.077-2.6,2.077A3.638,3.638,0,0,1-.662,3.667l.643-.777a2.762,2.762,0,0,0,1.983.8c1.019,0,1.514-.536,1.514-1.152C3.478.894-.206,1.55-.206-.914" transform="translate(890.288 72.68)"/>
    <path id="Path_56" data-name="Path 56" class="cls-1" d="M-.49-3.282v-4.5H-1.575v-.67l1.085-.2.322-1.889H.541v1.915h2.01v.844H.541v4.447c0,.817.416,1.152,1.058,1.152a2.014,2.014,0,0,0,1.112-.255l.295.831a3.22,3.22,0,0,1-1.634.335C.166-1.274-.49-1.9-.49-3.282" transform="translate(897.509 78.491)"/>
    <path id="Path_57" data-name="Path 57" class="cls-1" d="M-.363,0A.824.824,0,0,1,.48.844a.816.816,0,0,1-.844.8.806.806,0,0,1-.8-.8A.815.815,0,0,1-.363,0" transform="translate(902.845 75.503)"/>
    <path id="Path_58" data-name="Path 58" class="cls-1" d="M-1.72,0V9.229H-2.765V3.657c0-.174.04-2.317.054-2.5h-.054l-.978.683-1.165.817-.616-.87L-2.845,0Z" transform="translate(913.35 67.921)"/>
    <path id="Path_59" data-name="Path 59" class="cls-1" d="M-1.889-2.531a3,3,0,0,1-1.58.361,2.484,2.484,0,0,1-2.6-2.812A2.852,2.852,0,0,1-3.174-8.131c1.969,0,2.759,1.353,2.759,3.416A7.227,7.227,0,0,1-3.55,1.233H-5.063V1.112A6.877,6.877,0,0,0-1.862-2.5Zm.322-1.045a6.442,6.442,0,0,0,.08-1.1c0-1.861-.75-2.518-1.768-2.518C-4.367-7.193-5-6.51-5-5.157c0,1.421.643,2.049,1.795,2.049a3.04,3.04,0,0,0,1.635-.469" transform="translate(919.602 75.918)"/>
    <path id="Path_60" data-name="Path 60" class="cls-1" d="M0-3.513l1.032-.509A1.8,1.8,0,0,0,2.8-2.883c1.192,0,1.755-.763,1.755-2.036S3.938-6.767,2.813-6.767a1.659,1.659,0,0,0-1.3.536L.375-6.62l.4-4.662H5.2v.951H1.7L1.42-7.21l.067.014a2.565,2.565,0,0,1,1.541-.482,2.354,2.354,0,0,1,2.6,2.666A2.785,2.785,0,0,1,2.706-1.945,2.806,2.806,0,0,1,0-3.513" transform="translate(920.51 79.203)"/>
    <path id="Path_61" data-name="Path 61" class="cls-1" d="M-.679-1.659A3.064,3.064,0,0,1,.887-2.034c1.555,0,2.586.951,2.586,2.88,0,1.969-1.165,3.188-2.88,3.188-2,0-2.773-1.353-2.773-3.443A7.069,7.069,0,0,1,1-5.33H2.5v.121A7,7,0,0,0-.72-1.7ZM-1.014-.641A4.754,4.754,0,0,0-1.135.578c0,1.875.8,2.532,1.808,2.532,1.112,0,1.728-.7,1.728-2.1C2.4-.441,1.772-1.1.621-1.1a2.97,2.97,0,0,0-1.635.456" transform="translate(929.844 73.251)"/>
  </g>
</svg>
