<svg xmlns="http://www.w3.org/2000/svg" width="129.055" height="51.857" viewBox="0 0 129.055 51.857">
  <g id="Group_7647" data-name="Group 7647" transform="translate(-5400.12 4441.057)">
    <path id="Path_2108" data-name="Path 2108" d="M5400.12-4430.388v-1.964h13.755v1.964h-5.7v16.125h-2.346v-16.125Z" transform="translate(0 -5.659)" fill="#1a1818"/>
    <path id="Path_2109" data-name="Path 2109" d="M5485.835-4416.227h9.789v1.963h-12.135v-18.088h12.135v1.964h-9.789v6h7.654v1.963h-7.654Z" transform="translate(-54.259 -5.659)" fill="#1a1818"/>
    <path id="Path_2110" data-name="Path 2110" d="M5657.458-4432.359h2.4v18.088H5657.6v-13.463l-3.446,8.6h-2.378l-3.445-8.6v13.463h-2.256v-18.088h2.408l4.479,11.01Z" transform="translate(-160.075 -5.66)" fill="#1a1818"/>
    <path id="Path_2111" data-name="Path 2111" d="M5741.937-4420.614c0,3.8-2.805,6.125-6.892,6.125s-6.891-2.327-6.891-6.125v-6.357c0-3.8,2.8-6.125,6.891-6.125s6.892,2.327,6.892,6.125Zm-2.346-6.357c0-2.739-2.013-4.159-4.544-4.159s-4.544,1.421-4.544,4.159v6.357c0,2.739,2.013,4.159,4.544,4.159s4.544-1.42,4.544-4.159Z" transform="translate(-213.493 -5.177)" fill="#1a1818"/>
    <path id="Path_2112" data-name="Path 2112" d="M5414.044-4340.241H5411.7c-.244-2.4-2.133-3.644-4.514-3.644-2.53,0-4.543,1.421-4.543,4.158v6.357c0,2.738,2.013,4.159,4.543,4.159s4.545-1.421,4.545-4.159v-1.782h-4.545v-1.964h6.891v3.749c0,3.8-2.8,6.125-6.891,6.125s-6.891-2.326-6.891-6.125v-6.357c0-3.8,2.805-6.124,6.891-6.124C5411.091-4345.85,5413.8-4343.728,5414.044-4340.241Z" transform="translate(-0.114 -61.962)" fill="#1a1818"/>
    <path id="Path_2113" data-name="Path 2113" d="M5485.766-4335.214v8.192h-2.346v-18.088h7.257c4.543,0,6.159,2.559,6.159,4.961,0,2.2-1.341,4.471-5,4.885l5.7,8.243h-2.713l-5.671-8.192Zm4.9-7.932h-4.9v6.02h4.9c2.409,0,3.781-1.292,3.781-3.023s-1.371-3-3.771-3Z" transform="translate(-54.213 -62.444)" fill="#1a1818"/>
    <path id="Path_2114" data-name="Path 2114" d="M5577.677-4333.364c0,3.8-2.805,6.125-6.892,6.125s-6.891-2.326-6.891-6.125v-6.357c0-3.8,2.805-6.124,6.891-6.124s6.892,2.326,6.892,6.124Zm-2.346-6.357c0-2.739-2.013-4.159-4.543-4.159s-4.544,1.421-4.544,4.159v6.357c0,2.738,2.012,4.159,4.544,4.159s4.543-1.421,4.543-4.159Z" transform="translate(-106.586 -61.961)" fill="#1a1818"/>
    <path id="Path_2115" data-name="Path 2115" d="M5646.37-4345.11h2.346v12.223c0,2.738,2.013,4.159,4.543,4.159s4.544-1.421,4.544-4.159v-12.223h2.346v12.223c0,3.8-2.805,6.125-6.891,6.125s-6.892-2.326-6.892-6.125Z" transform="translate(-160.261 -62.443)" fill="#1a1818"/>
    <path id="Path_2116" data-name="Path 2116" d="M5737.138-4334.042H5732.6v7.029h-2.346V-4345.1h6.891c4.94,0,6.891,2.326,6.891,5.53S5742.085-4334.042,5737.138-4334.042Zm0-9.1H5732.6v7.132h4.542c3.294,0,4.479-1.6,4.479-3.567s-1.184-3.576-4.479-3.576Z" transform="translate(-214.856 -62.443)" fill="#1a1818"/>
    <g id="Group_1220" data-name="Group 1220" transform="translate(5454.724 -4441.057)">
      <path id="Path_2117" data-name="Path 2117" d="M5589.9-4431.794l6.248-9.263h-2.622l-5.212,7.726a2.814,2.814,0,0,1,1.585,1.537Z" transform="translate(-5577.203 4441.057)" fill="#e55e20"/>
      <path id="Path_2118" data-name="Path 2118" d="M5564.337-4433.33l-5.211-7.726H5556.5l6.246,9.263A2.82,2.82,0,0,1,5564.337-4433.33Z" transform="translate(-5556.498 4441.057)" fill="#e55e20"/>
      <path id="Path_2119" data-name="Path 2119" d="M5588.3-4396.754l5.21,7.725h2.626l-6.245-9.261a2.814,2.814,0,0,1-1.591,1.536Z" transform="translate(-5577.198 4413.229)" fill="#e55e20"/>
      <path id="Path_2120" data-name="Path 2120" d="M5562.748-4398.29l-6.247,9.261h2.626l5.211-7.725a2.817,2.817,0,0,1-1.59-1.536Z" transform="translate(-5556.501 4413.229)" fill="#e55e20"/>
    </g>
  </g>
</svg>
