<svg xmlns="http://www.w3.org/2000/svg" width="25.5" height="28.505" viewBox="0 0 25.5 28.505">
  <path id="cube-svgrepo-com" d="M28,6.531c0-.007,0-.014,0-.021a.486.486,0,0,0-.015-.1.426.426,0,0,0-.016-.04.443.443,0,0,0-.033-.072c-.008-.014-.019-.026-.028-.039a.469.469,0,0,0-.048-.057.439.439,0,0,0-.039-.032c-.012-.01-.023-.021-.037-.03s-.017-.007-.025-.011-.012-.009-.019-.013L15.238.047a.458.458,0,0,0-.414.007L3.25,6.12l-.013.01-.017.007a.426.426,0,0,0-.042.035c-.013.011-.028.021-.04.033a.452.452,0,0,0-.046.057.458.458,0,0,0-.028.039.433.433,0,0,0-.033.078c0,.012-.01.022-.013.034A.469.469,0,0,0,3,6.534V21.467a.468.468,0,0,0,.256.418l12.037,6.067c.007,0,.014,0,.021.005A.465.465,0,0,0,15.5,28a.456.456,0,0,0,.186-.044c.007,0,.015,0,.021-.005l12.037-6.067A.466.466,0,0,0,28,21.467V6.532ZM15.045.989,26.486,6.542,15.5,12.079,4.482,6.526ZM3.926,7.289l11.111,5.6v13.89l-11.111-5.6Zm23.148,13.89-11.111,5.6V12.889l11.111-5.6Z" transform="translate(-2.75 0.254)" fill="#424244" stroke="#424244" stroke-width="0.5"/>
</svg>
