<svg xmlns="http://www.w3.org/2000/svg" viewBox="0 0 27.1 23.6"><defs><style>.a{fill:none;stroke:#424244;stroke-linecap:round;stroke-linejoin:round;stroke-miterlimit:10;stroke-width:2px;}.b{fill:#424244;}</style></defs><g transform="translate(-427 -443.5)"><path class="a" d="M.5,11.3A10.8,10.8,0,1,1,11.3,22.1a10.571,10.571,0,0,1-4-.8" transform="translate(431 444)"/><path class="b" d="M10.447,11.267a.537.537,0,0,1-.888,0c-2.652-2.813-4.876-5.4-5.031-5.623s-.148-.444.3-.444H15.182c.444,0,.592.3.3.592C15.478,5.792,12.667,8.751,10.447,11.267Z" transform="translate(420.781 456.518) rotate(-25)"/><g transform="translate(441.5 449.5)"><line class="a" x1="3.959" y1="2.272" transform="translate(0.5 6.925)"/><line class="a" y1="6.425" transform="translate(0.5 0.5)"/></g></g></svg>
