<svg xmlns="http://www.w3.org/2000/svg" width="28.776" height="28.698" viewBox="0 0 28.776 28.698">
  <path id="Path_1056" data-name="Path 1056" d="M103.863,95.868l-.655.011c-.455.011-.8.018-1.33,0,.05-.328.181-1.106.526-2.944a.541.541,0,0,0-.334-.609.549.549,0,0,0-.669.2c-.822,1.215-2.326,3.427-3.148,4.568a.551.551,0,0,0,.459.87c.213,0,.409-.007.6-.014.324-.011.633-.018,1.024-.014-.21.5-.434,1.074-.665,1.68-.178.461-.359.94-.558,1.433a.542.542,0,0,0,.221.669.557.557,0,0,0,.7-.1c1.526-1.655,2.59-2.884,4.258-4.853a.549.549,0,0,0-.43-.9Zm.025.56c-1.665,1.962-2.725,3.187-4.244,4.836-.007.011-.011.014-.025,0s-.014-.014-.007-.025c.2-.5.384-.976.562-1.44.288-.75.562-1.462.811-2.015a.263.263,0,0,0-.018-.247.268.268,0,0,0-.217-.123c-.238-.007-.452-.011-.644-.011-.3,0-.558.007-.807.014-.189.007-.381.011-.59.014a.017.017,0,0,1-.018-.011c-.007-.011,0-.018,0-.021.825-1.148,2.333-3.363,3.159-4.582.007-.011.011-.014.025-.007s.014.011.014.025c-.164.863-.3,1.574-.388,2.11-.06.345-.107.613-.135.8-.05.335-.068.433.018.539a.269.269,0,0,0,.2.1c.711.039,1.106.028,1.647.018.189,0,.4-.011.647-.011.007,0,.014,0,.018.011A.015.015,0,0,1,103.888,96.428Zm7.989-12.816a.27.27,0,0,0-.327-.018q-.843.586-1.626,1.124T108.3,85.841a.245.245,0,0,0-.1.127c-.146.4-.292.814-.434,1.215-.135.384-.274.778-.413,1.155-.238.236-1.455,1.451-2.831,2.832a7.414,7.414,0,0,0-5.218-.592,6.942,6.942,0,0,0-.978.335l-1.071-1.028a5.5,5.5,0,0,0,.765-1.905,4.277,4.277,0,0,0-.121-2.261,5.323,5.323,0,0,0-3.237-3.2,4.041,4.041,0,0,0-3.8,1,.26.26,0,0,0-.007.4c.459.409.772.715,1.074,1.011.285.278.576.563.989.933-.071.472-.16.909-.249,1.331s-.174.842-.245,1.307c-.438.067-.825.158-1.206.25a9.341,9.341,0,0,1-1.629.285c-.338-.317-.63-.6-.914-.873-.306-.3-.623-.6-1-.954a.272.272,0,0,0-.2-.07.268.268,0,0,0-.189.092,3.743,3.743,0,0,0-.445,3.973,5.549,5.549,0,0,0,3.216,2.818,4.413,4.413,0,0,0,2.148,0,5.358,5.358,0,0,0,1.608-.627l1.071,1.1a.05.05,0,0,0-.007.021,6.8,6.8,0,0,0-.253,3.941c-.7.7-1.7,1.683-2.675,2.634-1.241,1.219-2.529,2.479-3.2,3.166a3.259,3.259,0,0,0-.85,1.176,2.25,2.25,0,0,0,.2,1.761,6.266,6.266,0,0,0,1.017,1.338,4.574,4.574,0,0,0,2.984,1.845h.068a2.267,2.267,0,0,0,1.618-.81c.558-.567,1.192-1.19,1.86-1.853,1.323-1.307,2.814-2.782,4.119-4.173.167.039.338.07.509.1a7.251,7.251,0,0,0,1.067.077,7.061,7.061,0,0,0,1.91-.261c1.327,1.43,3.091,3.314,5.108,5.378.018.021.039.042.06.063a3.446,3.446,0,0,0,2.59,1.219,4.271,4.271,0,0,0,1.074-.144,3,3,0,0,0,2.06-2.525,3.631,3.631,0,0,0-1.362-3.075c-1.59-1.543-3.187-3.05-5.158-4.867a6.682,6.682,0,0,0,.523-3.011,6.484,6.484,0,0,0-.957-2.958c1.313-1.338,2.479-2.536,2.7-2.765.356-.148.761-.3,1.153-.447.416-.155.847-.317,1.224-.479a.24.24,0,0,0,.114-.092,34.35,34.35,0,0,0,2.07-3.4.26.26,0,0,0-.043-.3A30.812,30.812,0,0,0,111.878,83.612ZM94.035,92.871a.269.269,0,0,0-.352-.028,4.663,4.663,0,0,1-3.475.676,5.039,5.039,0,0,1-2.885-2.536,3.422,3.422,0,0,1-.3-1.779,3.006,3.006,0,0,1,.5-1.405c.281.268.534.511.775.747.306.3.626.606,1.007.961a.269.269,0,0,0,.2.07,9.757,9.757,0,0,0,1.835-.306A13.268,13.268,0,0,1,92.683,89a.267.267,0,0,0,.231-.225c.071-.525.171-1,.267-1.469s.2-.961.274-1.5a.271.271,0,0,0-.085-.232c-.459-.409-.772-.715-1.074-1.011-.253-.247-.512-.5-.861-.821a3.4,3.4,0,0,1,3.08-.711,4.8,4.8,0,0,1,2.874,2.863,4.471,4.471,0,0,1-.7,3.871.265.265,0,0,0,.028.342c.356.345.715.69,1.092,1.053a6.331,6.331,0,0,0-2.7,2.811C94.743,93.6,94.391,93.23,94.035,92.871Zm1.22,14.479c-.672.662-1.305,1.289-1.868,1.856a1.726,1.726,0,0,1-1.281.652,4.16,4.16,0,0,1-2.607-1.673,5.712,5.712,0,0,1-.936-1.222,1.758,1.758,0,0,1-.167-1.352,2.9,2.9,0,0,1,.726-.979c.672-.683,1.956-1.944,3.2-3.159.875-.859,1.775-1.743,2.462-2.423a4.8,4.8,0,0,0,.915,1.7s.091.133.115.165a10.146,10.146,0,0,0,2.555,2.406.775.775,0,0,0,.8.082C97.919,104.715,96.511,106.11,95.255,107.349Zm17.135-2.592a3.146,3.146,0,0,1,1.206,2.634,2.461,2.461,0,0,1-1.665,2.078,2.932,2.932,0,0,1-3.141-.926c-.021-.025-.043-.046-.064-.067-1.932-1.976-3.632-3.79-4.937-5.195.153-.06.3-.12.448-.19l1-.778.845-.76,1.094-1.184c.068-.116.132-.232.2-.352C109.281,101.778,110.839,103.25,112.39,104.757Zm-4.8-8.22a6.269,6.269,0,0,1-.879,3.564,6.337,6.337,0,0,1-2.7,2.508,6.545,6.545,0,0,1-7.025-1.05,6.386,6.386,0,0,1-1.611-6.85l.064-.158a.059.059,0,0,0,.007-.018,5.792,5.792,0,0,1,2.917-3.054l.043-.021a6.613,6.613,0,0,1,1.032-.366,6.888,6.888,0,0,1,5,.637.012.012,0,0,1,.007,0,7.13,7.13,0,0,1,1.106.743A5.851,5.851,0,0,1,107.595,96.537Zm4.375-7.142c-.349.144-.747.3-1.135.44-.416.155-.847.317-1.224.479a.3.3,0,0,0-.089.06c-.014.014-1.238,1.275-2.657,2.722a5.8,5.8,0,0,0-.975-1.021,7.7,7.7,0,0,0-.893-.63c1.483-1.486,2.757-2.754,2.771-2.768a.229.229,0,0,0,.06-.1c.146-.4.292-.814.434-1.215.132-.373.27-.761.406-1.134.537-.373,1.053-.729,1.554-1.074q.7-.486,1.458-1.007a29.524,29.524,0,0,1,2.188,2.138A35.275,35.275,0,0,1,111.97,89.395Z" transform="translate(-86.052 -82.033)" fill="#424244" stroke="#424244" stroke-width="0.7"/>
</svg>
