<svg id="Group_1561" data-name="Group 1561" xmlns="http://www.w3.org/2000/svg" viewBox="0 0 24.867 24.494">
  <defs>
    <style>
      .cls-1 {
        fill: #424244;
      }
    </style>
  </defs>
  <path id="Path_790" data-name="Path 790" class="cls-1" d="M23.933,3.739H20.754V.935A.883.883,0,0,0,19.819,0H.935A.883.883,0,0,0,0,.935V19.819a.883.883,0,0,0,.935.935H4.113v2.8a.883.883,0,0,0,.935.935H23.933a.883.883,0,0,0,.935-.935V4.674A.883.883,0,0,0,23.933,3.739ZM23,22.624H5.983v-6.17a.883.883,0,0,0-.935-.935.883.883,0,0,0-.935.935v2.431H1.87V1.87H18.884v1.87H16.641a1,1,0,0,0-.935.935,1,1,0,0,0,.935.935H23V22.624Z" transform="translate(0)"/>
  <path id="Path_791" data-name="Path 791" class="cls-1" d="M11.275,2.848,6.787,2.474,2.3,2.1l.561,4.487.374,4.3L5.479,8.644l4.3,4.3,3.366-3.366-4.3-4.3Z" transform="translate(2 1.826)"/>
</svg>