<svg xmlns="http://www.w3.org/2000/svg" viewBox="0 0 151.301 119.9">
  <defs>
    <style>
      .cls-1 {
        fill: none;
        stroke: #434241;
        stroke-linecap: round;
        stroke-linejoin: round;
        stroke-miterlimit: 10;
        stroke-width: 2px;
      }
    </style>
  </defs>
  <g id="Group_440" data-name="Group 440" transform="translate(-96.1 -33.7)">
    <path id="Path_459" data-name="Path 459" class="cls-1" d="M150.7,152.5H104.5V114.8a18.309,18.309,0,0,1,18.3-18.3h0"/>
    <path id="Path_460" data-name="Path 460" class="cls-1" d="M135.3,101.6a18.169,18.169,0,0,1,5.7,13.3v28.6"/>
    <path id="Path_461" data-name="Path 461" class="cls-1" d="M227.8,101.6a18.169,18.169,0,0,1,5.7,13.3v37.7H187.3"/>
    <path id="Path_462" data-name="Path 462" class="cls-1" d="M233.1,75.2a16.551,16.551,0,0,1,.3,3.2,18.266,18.266,0,0,1-18.2,18.2h0a17.936,17.936,0,0,0-18.3,18.3v28.7"/>
    <path id="Path_463" data-name="Path 463" class="cls-1" d="M187.3,152.5V114.8A18.309,18.309,0,0,0,169,96.5h0"/>
    <path id="Path_464" data-name="Path 464" class="cls-1" d="M156.5,101.6a18.169,18.169,0,0,0-5.7,13.3v37.7"/>
    <path id="Path_465" data-name="Path 465" class="cls-1" d="M156.6,65.1a17.881,17.881,0,0,0-5.8,13.3A18.2,18.2,0,0,0,169,96.6"/>
    <path id="Path_466" data-name="Path 466" class="cls-1" d="M182.1,91a18.376,18.376,0,0,0,5.1-12.6,18.045,18.045,0,0,0-5.8-13.3"/>
    <path id="Path_467" data-name="Path 467" class="cls-1" d="M232,67.4H197.9V63.2A18.2,18.2,0,0,1,216.1,45h0a18.134,18.134,0,0,1,16.5,10.6"/>
    <path id="Path_468" data-name="Path 468" class="cls-1" d="M233.8,61.4h12.6v6.1H229.5"/>
    <path id="Path_469" data-name="Path 469" class="cls-1" d="M104.4,77.9a25.394,25.394,0,1,1,43.5-17.8,24.787,24.787,0,0,1-2.3,10.5"/>
    <path id="Path_470" data-name="Path 470" class="cls-1" d="M132.9,63.3a18.174,18.174,0,0,1-10.1,33.3"/>
    <path id="Path_471" data-name="Path 471" class="cls-1" d="M109.7,91a18.174,18.174,0,0,1,10.4-30.6"/>
    <path id="Path_472" data-name="Path 472" class="cls-1" d="M123.1,59.7a26.271,26.271,0,0,1-3,.8"/>
    <path id="Path_473" data-name="Path 473" class="cls-1" d="M134.6,37.7a19.989,19.989,0,0,1,.7,4.9,18.078,18.078,0,0,1-12.1,17.1"/>
    <path id="Path_474" data-name="Path 474" class="cls-1" d="M103.8,42.9a22.98,22.98,0,0,1,28.1,8.8"/>
    <circle id="Ellipse_193" data-name="Ellipse 193" class="cls-1" cx="2.2" cy="2.2" r="2.2" transform="translate(166.3 114.8)"/>
    <circle id="Ellipse_194" data-name="Ellipse 194" class="cls-1" cx="2.2" cy="2.2" r="2.2" transform="translate(166.3 127.9)"/>
    <circle id="Ellipse_195" data-name="Ellipse 195" class="cls-1" cx="2.2" cy="2.2" r="2.2" transform="translate(166.3 141)"/>
    <path id="Path_475" data-name="Path 475" class="cls-1" d="M183.4,62.9a6.358,6.358,0,0,1-5.3,2.7H159a6.487,6.487,0,0,1-6.5-6.5h0a6.487,6.487,0,0,1,6.5-6.5h15.8"/>
    <path id="Path_476" data-name="Path 476" class="cls-1" d="M182.9,63.6c7.3-8.1,2.4-17.9,2.4-17.9-.8,7.6-10.5,7-10.5,7s-9.5-.7-9.5,8"/>
    <path id="Path_477" data-name="Path 477" class="cls-1" d="M202.2,91a18.376,18.376,0,0,1-5.1-12.6,17.817,17.817,0,0,1,3.1-10.2"/>
  </g>
</svg>
