<svg xmlns="http://www.w3.org/2000/svg" xmlns:xlink="http://www.w3.org/1999/xlink" version="1.1" id="Layer_1" x="0px" y="0px" viewBox="0 0 100 100" style="enable-background:new 0 0 100 100;" xml:space="preserve">
<style type="text/css">
	.st0{display:none;}
	.st1{display:inline;}
	.st2{fill:#FFFFFF;}
	.st3{fill:#D6EBF2;}
	.st4{fill:#1D305D;}
	.st5{fill:#313744;}
</style>
<g id="margins" class="st0">
	<g class="st1">
		<circle class="st2" cx="50" cy="50" r="74.5"/>
		<path class="st3" d="M50-24c40.8,0,74,33.2,74,74s-33.2,74-74,74s-74-33.2-74-74S9.2-24,50-24 M50-25C8.6-25-25,8.6-25,50    s33.6,75,75,75s75-33.6,75-75S91.4-25,50-25L50-25z"/>
	</g>
	<g class="st1">
		<circle class="st2" cx="50" cy="50" r="49.5"/>
		<path class="st3" d="M50,1c27,0,49,22,49,49S77,99,50,99S1,77,1,50S23,1,50,1 M50,0C22.4,0,0,22.4,0,50s22.4,50,50,50    s50-22.4,50-50S77.6,0,50,0L50,0z"/>
	</g>
</g>
<g>
	<g>
		<g>
			<g>
				<path class="st5" d="M50.7,80.7c-14.4,0-26-11.7-26-26v-0.8h52.1v0.8C76.7,69,65,80.7,50.7,80.7z M26.4,55.5      C26.8,68.6,37.5,79,50.7,79C63.8,79,74.6,68.6,75,55.5H26.4z"/>
			</g>
		</g>
		<g>
			<g>
				<path class="st5" d="M51.2,49.4h-4.9V35.6l-0.7-4.4l1.2-4.3c0.2-0.6,0.7-1,1.4-1h1c0.6,0,1.2,0.4,1.4,1l1.2,4.3l-0.7,4.4V49.4z       M48,47.7h1.5V35.5l0.6-4.2l-1.1-3.7h-0.7l-1.1,3.7l0.6,4.3V47.7z"/>
			</g>
			<g>
				<path class="st5" d="M69.4,54.3l-1.6-20h10.9v-1.6L71.5,28c-0.3-0.2-0.7-0.3-1-0.3h-14c-0.4,0-0.8,0.3-0.8,0.8v5.1      c0,0.4,0.3,0.8,0.8,0.8h8.2l0,1l-1.5,18.9l-1.7-0.1L63,36h-6.5c-1.4,0-2.4-1.1-2.4-2.4v-5.1c0-1.4,1.1-2.4,2.4-2.4h14      c0.7,0,1.4,0.2,1.9,0.6l7.2,4.7c0.5,0.3,0.7,0.8,0.7,1.4v1.7c0,0.9-0.7,1.6-1.6,1.6h-9.2l1.5,18.1L69.4,54.3z"/>
			</g>
			<g>
				<path class="st5" d="M37.4,54.3l-1.2-15.5l0.5-0.3c0,0,4.5-2.3,4.5-6.1c0-2.1-1-3.7-1.8-4.6l0,2.3c0,2.3-1.9,4.2-4.2,4.2l-1.8,0      v-0.1l-0.2,0c-1.1,0-2.2-0.5-3-1.3c-0.8-0.8-1.2-1.9-1.2-3l0-2.2c-0.9,0.9-1.8,2.4-1.9,4.6c-0.2,3.8,4.3,6.1,4.3,6.2l0.5,0.3      l0,0.6l-1.1,15l-1.7-0.1l1-14.4c-1.3-0.8-4.9-3.4-4.7-7.4c0.1-2.9,1.5-4.8,2.6-5.9c0.5-0.5,1.1-0.6,1.7-0.3      c0.6,0.2,0.9,0.8,0.9,1.5L30.7,30c0,0.7,0.2,1.3,0.7,1.8c0.5,0.5,1.1,0.8,1.8,0.8l1.9,0v0l0.1,0c1.4,0,2.5-1.2,2.5-2.5l0-2.7      c0-0.6,0.4-1.2,1-1.4c0.6-0.2,1.2-0.1,1.7,0.4c1.1,1.2,2.5,3.1,2.5,6c0.1,4-3.5,6.5-4.9,7.3l1.1,14.4L37.4,54.3z"/>
			</g>
			<g>
				<path class="st5" d="M52,54.2l-0.2-3.7c-0.1-0.6-0.6-1.1-1.2-1.1h-3.8c-0.6,0-1.2,0.5-1.2,1.1l-0.2,3.7l-1.7-0.1l0.2-3.8      c0.1-1.5,1.4-2.7,2.9-2.7h3.8c1.5,0,2.8,1.1,2.9,2.7l0,0l0.2,3.8L52,54.2z"/>
			</g>
		</g>
	</g>
	<g>
		<polygon class="st5" points="56.1,66.4 50.1,56.3 41.5,60.9 40.7,59.4 50.7,54 57.5,65.5   "/>
	</g>
	<g>
		<rect x="49.8" y="71" class="st5" width="1.7" height="4.2"/>
	</g>
	<g>
		<rect x="59" y="68.3" transform="matrix(0.866 -0.5 0.5 0.866 -27.179 39.3473)" class="st5" width="1.7" height="4.2"/>
	</g>
	<g>
		<rect x="65.5" y="61.3" transform="matrix(0.5 -0.866 0.866 0.5 -21.7489 89.215)" class="st5" width="1.7" height="4.2"/>
	</g>
	<g>
		<rect x="39.4" y="69.5" transform="matrix(0.5 -0.866 0.866 0.5 -40.1928 71.164)" class="st5" width="4.2" height="1.7"/>
	</g>
	<g>
		<rect x="32.9" y="62.6" transform="matrix(0.866 -0.5 0.5 0.866 -27.0334 25.9888)" class="st5" width="4.2" height="1.7"/>
	</g>
	<g>
		<rect x="63.9" y="34.3" class="st5" width="4.8" height="1.7"/>
	</g>
</g>
</svg>