<svg xmlns="http://www.w3.org/2000/svg" viewBox="0 0 17.525 20.029">
  <defs>
    <style>
      .cls-1 {
        fill: #424244;
        fill-rule: evenodd;
      }
    </style>
  </defs>
  <path id="Path_207" data-name="Path 207" class="cls-1" d="M8.763,10.015a2.5,2.5,0,1,1-2.5,2.5A2.511,2.511,0,0,1,8.763,10.015Zm0-7.511a2.511,2.511,0,0,0-2.5,2.5h5.007A2.511,2.511,0,0,0,8.763,2.5Zm6.259,17.525H2.5a2.511,2.511,0,0,1-2.5-2.5V7.511a2.511,2.511,0,0,1,2.5-2.5H3.755a5.007,5.007,0,0,1,10.015,0h1.252a2.511,2.511,0,0,1,2.5,2.5V17.525A2.511,2.511,0,0,1,15.022,20.029Z"/>
</svg>
