<?xml version="1.0" encoding="utf-8"?>
<!-- Generator: Adobe Illustrator 21.0.0, SVG Export Plug-In . SVG Version: 6.00 Build 0)  -->
<svg version="1.1" id="Layer_1" xmlns="http://www.w3.org/2000/svg" xmlns:xlink="http://www.w3.org/1999/xlink" x="0px" y="0px"
	 viewBox="0 0 508 508" style="enable-background:new 0 0 508 508;" xml:space="preserve">
<style type="text/css">
	.st0{fill:#6A955B;}
</style>
<g>
	<g>
		<path class="st0" d="M101.6,355.6H50.8V152.4h50.8c14,0,25.4-11.4,25.4-25.4l0,0c0-14-11.4-25.4-25.4-25.4H25.4
			C11.4,101.6,0,113,0,127v254c0,14,11.4,25.4,25.4,25.4h76.2c14,0,25.4-11.4,25.4-25.4l0,0C127,367,115.6,355.6,101.6,355.6z"/>
		<path class="st0" d="M482.6,101.6H254c-14,0-25.4,11.4-25.4,25.4l0,0c0,14,11.4,25.4,25.4,25.4h203.2v203.2H254
			c-14,0-25.4,11.4-25.4,25.4l0,0c0,14,11.4,25.4,25.4,25.4h228.6c14,0,25.4-11.4,25.4-25.4V127C508,113,496.6,101.6,482.6,101.6z"
			/>
	</g>
	<path class="st0" d="M254,25.4L254,25.4c0-14-11.4-25.4-25.4-25.4H127c-14,0-25.4,11.4-25.4,25.4l0,0c0,14,11.4,25.4,25.4,25.4
		h25.4v406.4H127c-14,0-25.4,11.4-25.4,25.4l0,0c0,14,11.4,25.4,25.4,25.4h101.6c14,0,25.4-11.4,25.4-25.4l0,0
		c0-14-11.4-25.4-25.4-25.4h-25.4V50.8h25.4C242.6,50.8,254,39.4,254,25.4z"/>
</g>
</svg>
