<svg xmlns="http://www.w3.org/2000/svg" xmlns:xlink="http://www.w3.org/1999/xlink" width="272" height="31.553" viewBox="0 0 272 31.553">
  <defs>
    <clipPath id="clip-path">
      <rect id="Rectangle_2345" data-name="Rectangle 2345" width="272" height="31.553" fill="none"/>
    </clipPath>
  </defs>
  <g id="Group_2948" data-name="Group 2948" transform="translate(24843 4655)">
    <g id="Group_2947" data-name="Group 2947" transform="translate(-24843 -4655)">
      <path id="Path_1424" data-name="Path 1424" d="M12.925,10.042l3.623-3.39,3.619,3.39V29.58H12.925ZM0,0V11.174H8.842L6.743,9.2H1.972V1.973h9.58L15.1,5.3,10.952,9.186V31.553H22.139V9.186L17.991,5.3l3.551-3.323h9.581V9.207H26.385l-2.1,1.973h8.813V.006H20.764L16.548,3.95,12.332,0Z" fill="#e2001f"/>
      <path id="Path_1425" data-name="Path 1425" d="M123.732,30.542v9.24h-2.249v-9.24h-3.178V28.374h8.605v2.168Z" transform="translate(-76.319 -18.302)" fill="#1a1818"/>
      <path id="Path_1426" data-name="Path 1426" d="M149.739,32.937h3.618V35.1h-3.618v2.51H154.5v2.167h-6.942V28.374H154.5v2.168h-4.759Z" transform="translate(-95.18 -18.302)" fill="#1a1818"/>
      <path id="Path_1427" data-name="Path 1427" d="M176.636,35.773l-2.526,4.009h-2.493l3.781-5.9-3.537-5.508h2.493l2.282,3.585,2.282-3.585h2.493l-3.537,5.508,3.781,5.9h-2.494Z" transform="translate(-110.7 -18.302)" fill="#1a1818"/>
      <path id="Path_1428" data-name="Path 1428" d="M207.982,36.718,206.5,32.465v7.318h-2.1V28.374h2.249l2.054,5.851,2.053-5.851H213V39.782h-2.1V32.465l-1.483,4.254Z" transform="translate(-131.845 -18.302)" fill="#1a1818"/>
      <g id="Group_2946" data-name="Group 2946" transform="translate(0 0)">
        <g id="Group_2945" data-name="Group 2945" clip-path="url(#clip-path)">
          <path id="Path_1429" data-name="Path 1429" d="M240.023,32.136a2.12,2.12,0,0,0-4.238,0v3.293a2.12,2.12,0,0,0,4.238,0ZM237.9,39.651a3.952,3.952,0,0,1-4.3-4.222V32.136a4.3,4.3,0,0,1,8.607,0v3.293a3.952,3.952,0,0,1-4.3,4.222" transform="translate(-150.683 -18.007)" fill="#1a1818"/>
          <path id="Path_1430" data-name="Path 1430" d="M281.466,34.128a2.437,2.437,0,0,0,0-4.873h-2.787v4.873Zm-2.787.88v4.776h-.9V28.374h3.684a3.124,3.124,0,0,1,3.325,3.309,3.137,3.137,0,0,1-3.325,3.325Z" transform="translate(-179.183 -18.303)" fill="#1a1818"/>
          <path id="Path_1431" data-name="Path 1431" d="M309.717,33.574a2.161,2.161,0,1,0,0-4.319h-2.983v4.319Zm-2.983.864v5.346h-.9V28.374h3.879a2.957,2.957,0,0,1,3.13,3.048,2.9,2.9,0,0,1-2.787,3l3.162,5.363h-1.027l-3.146-5.346Z" transform="translate(-197.28 -18.303)" fill="#1a1818"/>
          <path id="Path_1432" data-name="Path 1432" d="M336.8,38.9h5.411v.88h-6.308V28.374h6.308v.88H336.8v4.319h4.27v.864H336.8Z" transform="translate(-216.676 -18.303)" fill="#1a1818"/>
          <path id="Path_1433" data-name="Path 1433" d="M369.285,36.228a3.483,3.483,0,0,1-3.586,3.423,3.54,3.54,0,0,1-3.6-3.863v-4.01a3.54,3.54,0,0,1,3.6-3.863,3.483,3.483,0,0,1,3.586,3.423h-.9a2.576,2.576,0,0,0-2.689-2.543,2.649,2.649,0,0,0-2.706,2.983v4.01a2.649,2.649,0,0,0,2.706,2.983,2.576,2.576,0,0,0,2.689-2.543Z" transform="translate(-233.57 -18.007)" fill="#1a1818"/>
          <path id="Path_1434" data-name="Path 1434" d="M394.457,29.254V38.9h2.706v.88h-6.308V38.9h2.705V29.254h-2.705v-.88h6.308v.88Z" transform="translate(-252.12 -18.303)" fill="#1a1818"/>
          <path id="Path_1435" data-name="Path 1435" d="M418.364,30.947a2.08,2.08,0,0,0,1.614,2.135l2.037.554a2.913,2.913,0,0,1,2.233,2.95c0,1.663-1.027,3.064-3.325,3.064a3.468,3.468,0,0,1-3.635-3.423h.9a2.62,2.62,0,0,0,2.739,2.543c1.532,0,2.429-.75,2.429-2.184a2.091,2.091,0,0,0-1.7-2.086l-1.973-.538a3.088,3.088,0,0,1,1.011-6.047,3.242,3.242,0,0,1,3.374,2.934h-.9a2.357,2.357,0,0,0-2.478-2.054,2.105,2.105,0,0,0-2.331,2.152" transform="translate(-269.171 -18.007)" fill="#1a1818"/>
          <path id="Path_1436" data-name="Path 1436" d="M449.792,29.254V38.9H452.5v.88H446.19V38.9H448.9V29.254H446.19v-.88H452.5v.88Z" transform="translate(-287.814 -18.303)" fill="#1a1818"/>
          <path id="Path_1437" data-name="Path 1437" d="M473.379,35.788a2.718,2.718,0,1,0,5.411,0v-4.01a2.719,2.719,0,1,0-5.411,0Zm6.308,0a3.611,3.611,0,1,1-7.2,0v-4.01a3.611,3.611,0,1,1,7.2,0Z" transform="translate(-304.773 -18.007)" fill="#1a1818"/>
          <path id="Path_1438" data-name="Path 1438" d="M509.359,39.784h-.9l-5.412-9.633v9.633h-.9V28.374h.9l5.412,9.633V28.374h.9Z" transform="translate(-323.914 -18.303)" fill="#1a1818"/>
          <path id="Path_1439" data-name="Path 1439" d="M551.164,36.228a3.483,3.483,0,0,1-3.586,3.423,3.54,3.54,0,0,1-3.6-3.863v-4.01a3.54,3.54,0,0,1,3.6-3.863,3.484,3.484,0,0,1,3.586,3.423h-.9a2.576,2.576,0,0,0-2.69-2.543,2.649,2.649,0,0,0-2.706,2.983v4.01a2.649,2.649,0,0,0,2.706,2.983,2.576,2.576,0,0,0,2.69-2.543Z" transform="translate(-350.89 -18.007)" fill="#1a1818"/>
          <path id="Path_1440" data-name="Path 1440" d="M577.309,35.416l-1.89-5.558-1.891,5.558Zm.277.831H573.25l-1.206,3.537h-.913l3.88-11.41h.815l3.879,11.41h-.913Z" transform="translate(-368.407 -18.303)" fill="#1a1818"/>
          <path id="Path_1441" data-name="Path 1441" d="M603.372,30.947a2.08,2.08,0,0,0,1.614,2.135l2.037.554a2.913,2.913,0,0,1,2.233,2.95c0,1.663-1.027,3.064-3.325,3.064a3.468,3.468,0,0,1-3.635-3.423h.9a2.62,2.62,0,0,0,2.739,2.543c1.532,0,2.429-.75,2.429-2.184a2.091,2.091,0,0,0-1.7-2.086l-1.972-.538a3.088,3.088,0,0,1,1.011-6.047,3.241,3.241,0,0,1,3.374,2.934h-.9A2.357,2.357,0,0,0,605.7,28.8a2.1,2.1,0,0,0-2.331,2.151" transform="translate(-388.509 -18.007)" fill="#1a1818"/>
          <path id="Path_1442" data-name="Path 1442" d="M634.02,39.784h-.9V29.254h-3.162v-.88h7.221v.88H634.02Z" transform="translate(-406.355 -18.303)" fill="#1a1818"/>
          <path id="Path_1443" data-name="Path 1443" d="M663.649,29.254V38.9h2.706v.88h-6.308V38.9h2.706V29.254h-2.706v-.88h6.308v.88Z" transform="translate(-425.762 -18.303)" fill="#1a1818"/>
          <path id="Path_1444" data-name="Path 1444" d="M694.744,39.784h-.9l-5.412-9.633v9.633h-.9V28.374h.9l5.412,9.633V28.374h.9Z" transform="translate(-443.495 -18.303)" fill="#1a1818"/>
          <path id="Path_1445" data-name="Path 1445" d="M720.854,33.6h3.6v2.184a3.611,3.611,0,1,1-7.2,0v-4.01a3.539,3.539,0,0,1,3.6-3.863,3.483,3.483,0,0,1,3.586,3.423h-.9a2.587,2.587,0,0,0-2.69-2.543,2.649,2.649,0,0,0-2.706,2.983v4.01a2.719,2.719,0,1,0,5.412,0v-1.32h-2.706Z" transform="translate(-462.661 -18.007)" fill="#1a1818"/>
          <path id="Path_1446" data-name="Path 1446" d="M747.766,30.947a2.08,2.08,0,0,0,1.614,2.135l2.037.554a2.914,2.914,0,0,1,2.233,2.95c0,1.663-1.027,3.064-3.325,3.064a3.468,3.468,0,0,1-3.635-3.423h.9a2.62,2.62,0,0,0,2.739,2.543c1.532,0,2.429-.75,2.429-2.184a2.091,2.091,0,0,0-1.7-2.086l-1.972-.538a3.088,3.088,0,0,1,1.011-6.047,3.242,3.242,0,0,1,3.374,2.934h-.9A2.357,2.357,0,0,0,750.1,28.8a2.1,2.1,0,0,0-2.331,2.151" transform="translate(-481.65 -18.007)" fill="#1a1818"/>
        </g>
      </g>
    </g>
  </g>
</svg>